M48
;Layer_Color=9474304
;FILE_FORMAT=4:4
METRIC,LZ
;TYPE=PLATED
T1F00S00C0.3000
T2F00S00C0.8000
T3F00S00C1.5000
T4F00S00C3.1000
%
T01
X00915Y001
X0093Y0013
X00866Y001
X0082Y0009925
X00795Y001
X0076125Y000955
X0075425Y0010475
X0075Y0007
X0078
X0081
X008195Y0005125
X008305Y00051
X0084Y0007
X00855Y0004
X00638Y0009775
X0058675Y00105
X00555Y001
X00561Y00118
X0053575Y001245
X0051025Y00131
X00525Y001
X00465
X0045Y0013
X00485Y001375
X0045Y0007
X00267Y0004325
X0026675Y0002275
X002445Y0009
X0022825Y0008625
X0021825Y00074
X00199Y0006125
X0018Y0007
X0015
X0012
X00135Y001
X00165
Y0004
X00135
X00105
Y001
X0012Y0013
X0006
X00075Y001
X00045
X0009Y0007
X00075Y0016
X00045
X0006Y0025
X0009
X00075Y0028
X0009Y0031
X00075Y0034
X00045
X0006Y0037
X0009
X00075Y004
X00045
X0006Y0043
X0009
X00075Y0046
X00045
X0003Y0043
Y0037
Y0031
Y0025
X0009Y0049
X0012
X00135Y0052
X00165
X00195
X00225
X00255
X00285
X00315
X00345
X00375
X00405
X0039Y0049
X0036
X0033
X003
X0027
X00285Y0046
X00255
X00225
X00195
X0024Y0043
X00255Y004
X0027Y0037
X003
X002935Y003815
X00353Y0038125
X00365018Y00356017
X00397Y0033575
X003975Y002895
X004265
X00427Y003035
X0046275Y0030225
X003775Y003035
X0036675Y0030475
X0032Y003085
X00325Y003315
X00315Y0034
X002765Y00297
X002885Y0027825
X00225Y0022
X00165
X0015Y0025
X0012
X00105Y0028
X0012Y0031
X00135Y0034
X001465Y0033975
X0015Y0037
X0017175Y00388
X00135Y004
X00105
X0012Y0043
X00105Y0046
Y0052
X0010325Y003415
X00205Y00345
X0024Y0037
X0018Y0031
X0012Y0019
X00105Y0016
X00434Y001505
X0045975Y00144
X00465Y004
X0048Y0049
X00439Y004805
X0051Y0049
X0050125Y00505
Y005205
X00516Y003965
X00541526Y00389019
X0054Y0037
X0057
X00567Y003815
X0059225Y00374
X0061753Y00366518
X00642781Y00359017
X00678507Y00343257
X00695Y00325
X0071Y00335
X0072Y0031
X00735Y0028
X00765
X00795
X0079775Y0024675
X0076925Y0023125
X0072Y0025
X0067825Y0022475
X006Y0025
X00615Y0028
X006Y0043
X00615Y0046
X0063Y0049
X0066
X0076375Y0050525
X007855Y005205
X008405Y0052975
X00855Y0052
X00882Y00446
X008825Y0039825
X0087Y0038375
X0089Y00303
X00855Y0028
X0084415Y002779
X008379Y002906
X008318Y003033
X008235Y0031575
X0081275Y003305
X008005Y00334
X0076925Y00344
X0081Y0043
X008505Y0026525
X00857Y002525
X008637Y002398
X00904Y002525
X0091275Y002053
X0091825Y0016525
X00928625Y00152375
X0090425Y001455
Y0036025
X00915Y0046
X0093Y0049
X0087Y0055
X0084
X0056925Y0054625
X0051Y0055
X0048
X0042
X0039
X0036
X0033
X003
X0027
X0024
X0021
X0018
X0015
X0012
X0009
T02
X0051045Y000206
X0053585
X0056125
X0058665
X0061205
X0063745
X0066285
X0068825
X0071365
X0073905
X0076445
X0078985
X0048505
X0045965
X0043425
X0040885
X0038345
X0035805
X0033265
X0030725
Y00173
X0033265
X0035805
X0038345
X0040885
X0043425
X0045965
X0048505
X004908Y0026425
X004654
Y0041665
X004908
X005162
X005416
X00567
X005924
X006178
X006432
X006686
X00694
X007194
X007448
X007702
X007956
X0080475Y0045175
X0082475
X0078475
X0076475
X0074475
X0072475
X0070475
X0068475
X0066475
X0064475
X006432Y0026425
X006686
X00694
X007194
X007448
X007702
X007956
X0078985Y00173
X0076445
X0073905
X0071365
X0068825
X0066285
X0063745
X0061205
X0058665
X0056125
X0053585
X0051045
X005162Y0026425
X005416
X00567
X005924
X006178
T03
X00023Y001235
X00093
Y00186
X0005825
X00023
T04
X009Y0005
X0005
Y0052
X009
M30
