G04 Layer_Color=65535*
%FSLAX44Y44*%
%MOMM*%
G71*
G01*
G75*
%ADD27C,0.3000*%
%ADD28C,0.6000*%
%ADD31C,0.2500*%
%ADD37C,1.0000*%
%ADD38C,0.1500*%
%ADD39C,0.1000*%
%ADD40C,0.2540*%
%ADD41R,2.2000X7.9000*%
D27*
X308964Y33650D02*
G03*
X308964Y33650I-1414J0D01*
G01*
D28*
X855750Y208300D02*
G03*
X855750Y208300I-3000J0D01*
G01*
Y315050D02*
G03*
X855750Y315050I-3000J0D01*
G01*
X855750Y422800D02*
G03*
X855750Y422800I-3000J0D01*
G01*
X150750Y368500D02*
G03*
X150750Y368500I-3000J0D01*
G01*
D31*
X187250Y53750D02*
G03*
X187250Y53750I-1250J0D01*
G01*
X342500Y289000D02*
G03*
X342500Y289000I-1250J0D01*
G01*
D37*
X466964Y280800D02*
G03*
X466964Y280800I-1414J0D01*
G01*
X788518Y219500D02*
G03*
X788518Y219500I-1768J0D01*
G01*
D38*
X950000Y520000D02*
G03*
X900000Y570000I-50000J0D01*
G01*
Y0D02*
G03*
X950000Y50000I-0J50000D01*
G01*
X0D02*
G03*
X50000Y0I50000J0D01*
G01*
Y570000D02*
G03*
X0Y520000I0J-50000D01*
G01*
X612500Y438250D02*
Y517000D01*
X856750D01*
Y438250D02*
Y517000D01*
X612500Y438250D02*
X856750D01*
X533500Y530250D02*
Y533000D01*
Y502250D02*
Y530250D01*
Y502250D02*
X568000D01*
Y542750D01*
X533500D02*
X568000D01*
X533500Y533000D02*
Y542750D01*
X571000Y530250D02*
Y533000D01*
Y502250D02*
Y530250D01*
Y502250D02*
X605500D01*
Y542750D01*
X571000D02*
X605500D01*
X571000Y533000D02*
Y542750D01*
X533500Y466250D02*
Y469000D01*
Y438250D02*
Y466250D01*
Y438250D02*
X568000D01*
Y478750D01*
X533500D02*
X568000D01*
X533500Y469000D02*
Y478750D01*
X571000Y466250D02*
Y469000D01*
Y438250D02*
Y466250D01*
Y438250D02*
X605500D01*
Y478750D01*
X571000D02*
X605500D01*
X571000Y469000D02*
Y478750D01*
X399500Y199250D02*
X402250D01*
X430250D01*
Y233750D01*
X389750D02*
X430250D01*
X389750Y199250D02*
Y233750D01*
Y199250D02*
X399500D01*
X611750Y215250D02*
Y218000D01*
Y246000D01*
X577250D02*
X611750D01*
X577250Y205500D02*
Y246000D01*
Y205500D02*
X611750D01*
Y215250D01*
X324000Y469500D02*
X345500D01*
X324000Y437250D02*
Y469500D01*
Y437250D02*
X345500D01*
Y469500D01*
X365750Y355750D02*
X387250D01*
Y388000D01*
X365750D02*
X387250D01*
X365750Y355750D02*
Y388000D01*
X241638Y171335D02*
X263138D01*
Y203585D01*
X241638D02*
X263138D01*
X241638Y171335D02*
Y203585D01*
X162000Y180835D02*
X183500D01*
Y213085D01*
X162000D02*
X183500D01*
X162000Y180835D02*
Y213085D01*
X241750Y278000D02*
X263250D01*
X241750Y245750D02*
Y278000D01*
Y245750D02*
X263250D01*
Y278000D01*
X533500Y545750D02*
X546000D01*
Y563250D01*
X533500D02*
X546000D01*
X533500Y545750D02*
Y563250D01*
X571000Y545750D02*
X583500D01*
Y563250D01*
X571000D02*
X583500D01*
X571000Y545750D02*
Y563250D01*
X188750Y277920D02*
X210250D01*
X188750Y245670D02*
Y277920D01*
Y245670D02*
X210250D01*
Y277920D01*
X555500Y563250D02*
X568000D01*
X555500Y545750D02*
Y563250D01*
Y545750D02*
X568000D01*
Y563250D01*
X593000D02*
X605500D01*
X593000Y545750D02*
Y563250D01*
Y545750D02*
X605500D01*
Y563250D01*
X135500Y171335D02*
X157000D01*
Y203585D01*
X135500D02*
X157000D01*
X135500Y171335D02*
Y203585D01*
X555500Y499250D02*
X568000D01*
X555500Y481750D02*
Y499250D01*
Y481750D02*
X568000D01*
Y499250D01*
X593000D02*
X605500D01*
X593000Y481750D02*
Y499250D01*
Y481750D02*
X605500D01*
Y499250D01*
X188500Y180835D02*
X210000D01*
Y213085D01*
X188500D02*
X210000D01*
X188500Y180835D02*
Y213085D01*
X533500Y499250D02*
X546000D01*
X533500Y481750D02*
Y499250D01*
Y481750D02*
X546000D01*
Y499250D01*
X571000D02*
X583500D01*
X571000Y481750D02*
Y499250D01*
Y481750D02*
X583500D01*
Y499250D01*
X215250Y277920D02*
X236750D01*
X215250Y245670D02*
Y277920D01*
Y245670D02*
X236750D01*
Y277920D01*
X215000Y180835D02*
X236500D01*
Y213085D01*
X215000D02*
X236500D01*
X215000Y180835D02*
Y213085D01*
X422000Y236750D02*
Y258250D01*
X389750D02*
X422000D01*
X389750Y236750D02*
Y258250D01*
Y236750D02*
X422000D01*
X365250Y201500D02*
X386750D01*
Y233750D01*
X365250D02*
X386750D01*
X365250Y201500D02*
Y233750D01*
X433250Y201500D02*
X454750D01*
Y233750D01*
X433250D02*
X454750D01*
X433250Y201500D02*
Y233750D01*
X457750Y201500D02*
X479250D01*
Y233750D01*
X457750D02*
X479250D01*
X457750Y201500D02*
Y233750D01*
X552750Y246000D02*
X574250D01*
X552750Y213750D02*
Y246000D01*
Y213750D02*
X574250D01*
Y246000D01*
X517500Y198000D02*
Y219500D01*
Y198000D02*
X549750D01*
Y219500D01*
X517500D02*
X549750D01*
X639250Y213750D02*
X660750D01*
Y246000D01*
X639250D02*
X660750D01*
X639250Y213750D02*
Y246000D01*
X614750Y246000D02*
X636250D01*
X614750Y213750D02*
Y246000D01*
Y213750D02*
X636250D01*
Y246000D01*
X228000Y396500D02*
Y418000D01*
X195750D02*
X228000D01*
X195750Y396500D02*
Y418000D01*
Y396500D02*
X228000D01*
X42750Y217000D02*
Y238500D01*
Y217000D02*
X75000D01*
Y238500D01*
X42750D02*
X75000D01*
X110250Y217000D02*
Y238500D01*
X78000D02*
X110250D01*
X78000Y217000D02*
Y238500D01*
Y217000D02*
X110250D01*
X195750Y372000D02*
Y393500D01*
Y372000D02*
X228000D01*
Y393500D01*
X195750D02*
X228000D01*
X324000Y434000D02*
X345500D01*
X324000Y401750D02*
Y434000D01*
Y401750D02*
X345500D01*
Y434000D01*
X299500Y469000D02*
X321000D01*
X299500Y436750D02*
Y469000D01*
Y436750D02*
X321000D01*
Y469000D01*
X299500Y434000D02*
X321000D01*
X299500Y401750D02*
Y434000D01*
Y401750D02*
X321000D01*
Y434000D01*
X663750Y229500D02*
X692250D01*
X663750D02*
Y246000D01*
X692250D01*
Y229500D02*
Y246000D01*
X663750Y205000D02*
X692250D01*
X663750D02*
Y221500D01*
X692250D01*
Y205000D02*
Y221500D01*
X365000Y441000D02*
Y469500D01*
X348500Y441000D02*
X365000D01*
X348500D02*
Y469500D01*
X365000D01*
X138250Y493250D02*
X166750D01*
Y476750D02*
Y493250D01*
X138250Y476750D02*
X166750D01*
X138250D02*
Y493250D01*
X826250Y217050D02*
X903000D01*
X826250Y200800D02*
Y217050D01*
Y112550D02*
Y200800D01*
X903000Y112550D02*
Y217050D01*
X826250Y112550D02*
X903000D01*
X826250Y323800D02*
X903000D01*
X826250Y307550D02*
Y323800D01*
Y219300D02*
Y307550D01*
X903000Y219300D02*
Y323800D01*
X826250Y219300D02*
X903000D01*
X826250Y431550D02*
X903000D01*
X826250Y415300D02*
Y431550D01*
Y327050D02*
Y415300D01*
X903000Y327050D02*
Y431550D01*
X826250Y327050D02*
X903000D01*
X306300Y5650D02*
X812800D01*
X294050D02*
X306300D01*
X284300D02*
X294050D01*
X284300D02*
Y187150D01*
X300300D01*
X812800D01*
Y5650D02*
Y187150D01*
X457050Y249050D02*
X492550D01*
X447800Y409550D02*
Y431550D01*
X807300D01*
X812800D01*
Y252800D02*
Y431550D01*
Y249050D02*
Y252800D01*
X492550Y249050D02*
X812800D01*
X447800D02*
X457050D01*
X447800D02*
Y409550D01*
X748250Y246000D02*
X812750D01*
X748250Y210500D02*
Y246000D01*
X812750Y210500D02*
Y246000D01*
X748250Y210500D02*
X812750D01*
X138250Y342500D02*
X192750D01*
Y418000D01*
X181000D02*
X192750D01*
X138250D02*
X181000D01*
X138250Y407750D02*
Y418000D01*
Y342500D02*
Y407750D01*
X906000Y408050D02*
Y419300D01*
Y408050D02*
X916250D01*
X947000D01*
Y431550D01*
X906000D02*
X947000D01*
X906000Y419300D02*
Y431550D01*
Y193550D02*
Y204800D01*
Y193550D02*
X916250D01*
X947000D01*
Y217050D01*
X906000D02*
X947000D01*
X906000Y204800D02*
Y217050D01*
Y300300D02*
Y311550D01*
Y300300D02*
X916250D01*
X947000D01*
Y323800D01*
X906000D02*
X947000D01*
X906000Y311550D02*
Y323800D01*
X251888Y127250D02*
X263138D01*
Y137500D01*
Y168250D01*
X239638D02*
X263138D01*
X239638Y127250D02*
Y168250D01*
Y127250D02*
X251888D01*
X172250Y127250D02*
X183500D01*
Y137500D01*
Y168250D01*
X160000D02*
X183500D01*
X160000Y127250D02*
Y168250D01*
Y127250D02*
X172250D01*
X239750Y322000D02*
X251000D01*
X239750Y311750D02*
Y322000D01*
Y281000D02*
Y311750D01*
Y281000D02*
X263250D01*
Y322000D01*
X251000D02*
X263250D01*
X186750D02*
X198000D01*
X186750Y311750D02*
Y322000D01*
Y281000D02*
Y311750D01*
Y281000D02*
X210250D01*
Y322000D01*
X198000D02*
X210250D01*
X145750Y127250D02*
X157000D01*
Y137500D01*
Y168250D01*
X133500D02*
X157000D01*
X133500Y127250D02*
Y168250D01*
Y127250D02*
X145750D01*
X198750D02*
X210000D01*
Y137500D01*
Y168250D01*
X186500D02*
X210000D01*
X186500Y127250D02*
Y168250D01*
Y127250D02*
X198750D01*
X213250Y322000D02*
X224500D01*
X213250Y311750D02*
Y322000D01*
Y281000D02*
Y311750D01*
Y281000D02*
X236750D01*
Y322000D01*
X224500D02*
X236750D01*
X225250Y127250D02*
X236500D01*
Y137500D01*
Y168250D01*
X213000D02*
X236500D01*
X213000Y127250D02*
Y168250D01*
Y127250D02*
X225250D01*
X310750Y190250D02*
Y234750D01*
X334250D01*
Y190250D02*
Y234750D01*
X310750Y190250D02*
X334250D01*
X296500Y190250D02*
X307750D01*
Y200500D01*
Y231250D01*
X284250D02*
X307750D01*
X284250Y190250D02*
Y231250D01*
Y190250D02*
X296500D01*
X505750Y201500D02*
Y246000D01*
X482250Y201500D02*
X505750D01*
X482250D02*
Y246000D01*
X505750D01*
X508750Y222500D02*
Y233750D01*
Y222500D02*
X519000D01*
X549750D01*
Y246000D01*
X508750D02*
X549750D01*
X508750Y233750D02*
Y246000D01*
X365750Y325000D02*
X377000D01*
X365750Y314750D02*
Y325000D01*
Y284000D02*
Y314750D01*
Y284000D02*
X389250D01*
Y325000D01*
X377000D02*
X389250D01*
X222000Y17900D02*
Y29150D01*
X211750D02*
X222000D01*
X181000D02*
X211750D01*
X181000Y5650D02*
Y29150D01*
Y5650D02*
X222000D01*
Y17900D01*
X734000Y205000D02*
X745250D01*
Y215250D01*
Y246000D01*
X721750D02*
X745250D01*
X721750Y205000D02*
Y246000D01*
Y205000D02*
X734000D01*
X707500D02*
X718750D01*
Y215250D01*
Y246000D01*
X695250D02*
X718750D01*
X695250Y205000D02*
Y246000D01*
Y205000D02*
X707500D01*
X3250Y291500D02*
X39750D01*
X3250Y217000D02*
Y291500D01*
Y217000D02*
X39750D01*
Y291500D01*
X138250Y423500D02*
Y434750D01*
Y423500D02*
X148500D01*
X179250D01*
Y447000D01*
X138250D02*
X179250D01*
X138250Y434750D02*
Y447000D01*
X138250Y473500D02*
X182750D01*
Y450000D02*
Y473500D01*
X138250Y450000D02*
X182750D01*
X138250D02*
Y473500D01*
X113250Y291750D02*
X149750D01*
X113250Y217250D02*
Y291750D01*
Y217250D02*
X149750D01*
Y291750D01*
X612500Y567000D02*
X856750D01*
Y517000D02*
Y567000D01*
X612500Y517000D02*
Y567000D01*
X50000Y570000D02*
X900000D01*
X950000Y50000D02*
Y520000D01*
X50000Y0D02*
X900000D01*
X0Y50000D02*
Y520000D01*
X3500Y98750D02*
X122500D01*
Y210750D01*
X3500D02*
X122500D01*
X3500Y98750D02*
Y210750D01*
X343002Y194750D02*
Y201415D01*
X339669Y198082D02*
X346334D01*
X503498Y259250D02*
Y252586D01*
X506831Y255918D02*
X500166D01*
X21498Y301250D02*
Y294585D01*
X24831Y297918D02*
X18166D01*
X128500Y461748D02*
X135164D01*
X131832Y465081D02*
Y458416D01*
X131498Y301500D02*
Y294835D01*
X134831Y298168D02*
X128166D01*
D39*
X180750Y32000D02*
X263250D01*
X180750D02*
Y111000D01*
X263250D01*
Y32000D02*
Y111000D01*
X363000Y283750D02*
Y366250D01*
X284000Y283750D02*
X363000D01*
X284000D02*
Y366250D01*
X363000D01*
D40*
X715250Y549735D02*
X725407Y534500D01*
Y549735D02*
X715250Y534500D01*
X730485D02*
Y549735D01*
X738103D01*
X740642Y547196D01*
Y542118D01*
X738103Y539578D01*
X730485D01*
X745720Y534500D02*
X750798D01*
X748259D01*
Y549735D01*
X745720Y547196D01*
X603250Y352235D02*
Y337000D01*
X610868D01*
X613407Y339539D01*
Y349696D01*
X610868Y352235D01*
X603250D01*
X618485D02*
Y337000D01*
X626103D01*
X628642Y339539D01*
Y349696D01*
X626103Y352235D01*
X618485D01*
X641338Y337000D02*
Y352235D01*
X633720Y344618D01*
X643877D01*
X531250Y108235D02*
Y93000D01*
X538867D01*
X541407Y95539D01*
Y105696D01*
X538867Y108235D01*
X531250D01*
X546485D02*
Y93000D01*
X554103D01*
X556642Y95539D01*
Y105696D01*
X554103Y108235D01*
X546485D01*
X571877D02*
X561720D01*
Y100618D01*
X566799Y103157D01*
X569338D01*
X571877Y100618D01*
Y95539D01*
X569338Y93000D01*
X564259D01*
X561720Y95539D01*
X240500Y63265D02*
Y78500D01*
X232882D01*
X230343Y75961D01*
Y65804D01*
X232882Y63265D01*
X240500D01*
X225265D02*
Y78500D01*
X217647D01*
X215108Y75961D01*
Y65804D01*
X217647Y63265D01*
X225265D01*
X210030Y65804D02*
X207491Y63265D01*
X202412D01*
X199873Y65804D01*
Y68343D01*
X202412Y70883D01*
X204951D01*
X202412D01*
X199873Y73422D01*
Y75961D01*
X202412Y78500D01*
X207491D01*
X210030Y75961D01*
X332485Y345000D02*
X317250D01*
Y337383D01*
X319789Y334843D01*
X329946D01*
X332485Y337383D01*
Y345000D01*
Y329765D02*
X317250D01*
Y322147D01*
X319789Y319608D01*
X329946D01*
X332485Y322147D01*
Y329765D01*
X317250Y304373D02*
Y314530D01*
X327407Y304373D01*
X329946D01*
X332485Y306912D01*
Y311991D01*
X329946Y314530D01*
X858515Y361750D02*
X873750D01*
Y369367D01*
X871211Y371907D01*
X861054D01*
X858515Y369367D01*
Y361750D01*
Y376985D02*
X873750D01*
Y384603D01*
X871211Y387142D01*
X861054D01*
X858515Y384603D01*
Y376985D01*
Y402377D02*
X861054Y397299D01*
X866133Y392220D01*
X871211D01*
X873750Y394759D01*
Y399838D01*
X871211Y402377D01*
X868672D01*
X866133Y399838D01*
Y392220D01*
X858515Y253600D02*
X873750D01*
Y261217D01*
X871211Y263757D01*
X861054D01*
X858515Y261217D01*
Y253600D01*
Y268835D02*
X873750D01*
Y276453D01*
X871211Y278992D01*
X861054D01*
X858515Y276453D01*
Y268835D01*
Y284070D02*
Y294227D01*
X861054D01*
X871211Y284070D01*
X873750D01*
X858515Y143300D02*
X873750D01*
Y150918D01*
X871211Y153457D01*
X861054D01*
X858515Y150918D01*
Y143300D01*
Y158535D02*
X873750D01*
Y166153D01*
X871211Y168692D01*
X861054D01*
X858515Y166153D01*
Y158535D01*
X861054Y173770D02*
X858515Y176309D01*
Y181388D01*
X861054Y183927D01*
X863593D01*
X866133Y181388D01*
X868672Y183927D01*
X871211D01*
X873750Y181388D01*
Y176309D01*
X871211Y173770D01*
X868672D01*
X866133Y176309D01*
X863593Y173770D01*
X861054D01*
X866133Y176309D02*
Y181388D01*
X115765Y380000D02*
X131000D01*
Y387617D01*
X128461Y390157D01*
X118304D01*
X115765Y387617D01*
Y380000D01*
X131000Y395235D02*
X120843D01*
X115765Y400313D01*
X120843Y405392D01*
X131000D01*
X123383D01*
Y395235D01*
X131000Y410470D02*
Y415549D01*
Y413009D01*
X115765D01*
X118304Y410470D01*
X84250Y91485D02*
X94407Y76250D01*
Y91485D02*
X84250Y76250D01*
X109642Y88946D02*
X107103Y91485D01*
X102024D01*
X99485Y88946D01*
Y86407D01*
X102024Y83868D01*
X107103D01*
X109642Y81328D01*
Y78789D01*
X107103Y76250D01*
X102024D01*
X99485Y78789D01*
X114720Y76250D02*
X119798D01*
X117259D01*
Y91485D01*
X114720Y88946D01*
D41*
X845750Y477750D02*
D03*
M02*
