G04 Layer_Color=8388736*
%FSLAX44Y44*%
%MOMM*%
G71*
G01*
G75*
%ADD42R,0.8000X1.1000*%
%ADD43R,1.1000X0.8000*%
G04:AMPARAMS|DCode=44|XSize=0.8mm|YSize=1.6mm|CornerRadius=0.1375mm|HoleSize=0mm|Usage=FLASHONLY|Rotation=270.000|XOffset=0mm|YOffset=0mm|HoleType=Round|Shape=RoundedRectangle|*
%AMROUNDEDRECTD44*
21,1,0.8000,1.3250,0,0,270.0*
21,1,0.5250,1.6000,0,0,270.0*
1,1,0.2750,-0.6625,-0.2625*
1,1,0.2750,-0.6625,0.2625*
1,1,0.2750,0.6625,0.2625*
1,1,0.2750,0.6625,-0.2625*
%
%ADD44ROUNDEDRECTD44*%
%ADD45R,0.7000X0.4000*%
G04:AMPARAMS|DCode=46|XSize=0.8mm|YSize=1.6mm|CornerRadius=0.1375mm|HoleSize=0mm|Usage=FLASHONLY|Rotation=180.000|XOffset=0mm|YOffset=0mm|HoleType=Round|Shape=RoundedRectangle|*
%AMROUNDEDRECTD46*
21,1,0.8000,1.3250,0,0,180.0*
21,1,0.5250,1.6000,0,0,180.0*
1,1,0.2750,-0.2625,0.6625*
1,1,0.2750,0.2625,0.6625*
1,1,0.2750,0.2625,-0.6625*
1,1,0.2750,-0.2625,-0.6625*
%
%ADD46ROUNDEDRECTD46*%
G04:AMPARAMS|DCode=47|XSize=0.7mm|YSize=1.1mm|CornerRadius=0.155mm|HoleSize=0mm|Usage=FLASHONLY|Rotation=0.000|XOffset=0mm|YOffset=0mm|HoleType=Round|Shape=RoundedRectangle|*
%AMROUNDEDRECTD47*
21,1,0.7000,0.7900,0,0,0.0*
21,1,0.3900,1.1000,0,0,0.0*
1,1,0.3100,0.1950,-0.3950*
1,1,0.3100,-0.1950,-0.3950*
1,1,0.3100,-0.1950,0.3950*
1,1,0.3100,0.1950,0.3950*
%
%ADD47ROUNDEDRECTD47*%
G04:AMPARAMS|DCode=48|XSize=0.7mm|YSize=1.1mm|CornerRadius=0.155mm|HoleSize=0mm|Usage=FLASHONLY|Rotation=90.000|XOffset=0mm|YOffset=0mm|HoleType=Round|Shape=RoundedRectangle|*
%AMROUNDEDRECTD48*
21,1,0.7000,0.7900,0,0,90.0*
21,1,0.3900,1.1000,0,0,90.0*
1,1,0.3100,0.3950,0.1950*
1,1,0.3100,0.3950,-0.1950*
1,1,0.3100,-0.3950,-0.1950*
1,1,0.3100,-0.3950,0.1950*
%
%ADD48ROUNDEDRECTD48*%
%ADD49O,1.3000X0.8000*%
%ADD50O,0.6000X1.5000*%
%ADD51O,1.5000X0.6000*%
%ADD52O,1.4500X0.5200*%
%ADD53O,0.7000X1.5500*%
%ADD54R,0.8000X1.8000*%
%ADD55R,1.8000X0.8000*%
%ADD56R,1.8000X1.3000*%
G04:AMPARAMS|DCode=57|XSize=2.1mm|YSize=2.7mm|CornerRadius=0.25mm|HoleSize=0mm|Usage=FLASHONLY|Rotation=270.000|XOffset=0mm|YOffset=0mm|HoleType=Round|Shape=RoundedRectangle|*
%AMROUNDEDRECTD57*
21,1,2.1000,2.2000,0,0,270.0*
21,1,1.6000,2.7000,0,0,270.0*
1,1,0.5000,-1.1000,-0.8000*
1,1,0.5000,-1.1000,0.8000*
1,1,0.5000,1.1000,0.8000*
1,1,0.5000,1.1000,-0.8000*
%
%ADD57ROUNDEDRECTD57*%
%ADD58R,1.3000X1.8000*%
%ADD59O,1.6000X2.1000*%
%ADD60C,1.6000*%
%ADD61C,7.1000*%
%ADD62O,3.1000X4.1000*%
D42*
X560250Y534500D02*
D03*
X541250D02*
D03*
X550750Y510500D02*
D03*
X597750Y534500D02*
D03*
X578750D02*
D03*
X588250Y510500D02*
D03*
X560250Y470500D02*
D03*
X541250D02*
D03*
X550750Y446500D02*
D03*
X597750Y470500D02*
D03*
X578750D02*
D03*
X588250Y446500D02*
D03*
X585000Y213750D02*
D03*
X604000D02*
D03*
X594500Y237750D02*
D03*
D43*
X398000Y226000D02*
D03*
Y207000D02*
D03*
X422000Y216500D02*
D03*
D44*
X334750Y444000D02*
D03*
Y462750D02*
D03*
X376500Y381250D02*
D03*
Y362500D02*
D03*
X252388Y196835D02*
D03*
Y178085D02*
D03*
X172750Y206335D02*
D03*
Y187585D02*
D03*
X252500Y252500D02*
D03*
Y271250D02*
D03*
X199500Y252420D02*
D03*
Y271170D02*
D03*
X146250Y196835D02*
D03*
Y178085D02*
D03*
X199250Y206335D02*
D03*
Y187585D02*
D03*
X226000Y252420D02*
D03*
Y271170D02*
D03*
X225750Y206335D02*
D03*
Y187585D02*
D03*
X376000Y227000D02*
D03*
Y208250D02*
D03*
X444000Y227000D02*
D03*
Y208250D02*
D03*
X468500Y227000D02*
D03*
Y208250D02*
D03*
X563500Y220500D02*
D03*
Y239250D02*
D03*
X650000Y239250D02*
D03*
Y220500D02*
D03*
X625500Y220500D02*
D03*
Y239250D02*
D03*
X334750Y408500D02*
D03*
Y427250D02*
D03*
X310250Y443500D02*
D03*
Y462250D02*
D03*
Y408500D02*
D03*
Y427250D02*
D03*
D45*
X539750Y558500D02*
D03*
Y550500D02*
D03*
X577250Y558500D02*
D03*
Y550500D02*
D03*
X561750D02*
D03*
Y558500D02*
D03*
X599250Y550500D02*
D03*
Y558500D02*
D03*
X561750Y486500D02*
D03*
Y494500D02*
D03*
X599250Y486500D02*
D03*
Y494500D02*
D03*
X539750Y486500D02*
D03*
Y494500D02*
D03*
X577250Y486500D02*
D03*
Y494500D02*
D03*
D46*
X396500Y247500D02*
D03*
X415250D02*
D03*
X543000Y208750D02*
D03*
X524250D02*
D03*
X202500Y407250D02*
D03*
X221250D02*
D03*
X68250Y227750D02*
D03*
X49500D02*
D03*
X84750D02*
D03*
X103500D02*
D03*
X221250Y382750D02*
D03*
X202500D02*
D03*
D47*
X686000Y237750D02*
D03*
X670000D02*
D03*
X686000Y213250D02*
D03*
X670000D02*
D03*
X144500Y485000D02*
D03*
X160500D02*
D03*
D48*
X356750Y463250D02*
D03*
Y447250D02*
D03*
D49*
X893750Y120350D02*
D03*
Y133050D02*
D03*
Y145750D02*
D03*
Y158450D02*
D03*
Y171150D02*
D03*
Y183850D02*
D03*
Y196550D02*
D03*
Y209250D02*
D03*
X835500Y120350D02*
D03*
Y133050D02*
D03*
Y145750D02*
D03*
Y158450D02*
D03*
Y171150D02*
D03*
Y183850D02*
D03*
Y196550D02*
D03*
Y209250D02*
D03*
X893750Y227100D02*
D03*
Y239800D02*
D03*
Y252500D02*
D03*
Y265200D02*
D03*
Y277900D02*
D03*
Y290600D02*
D03*
Y303300D02*
D03*
Y316000D02*
D03*
X835500Y227100D02*
D03*
Y239800D02*
D03*
Y252500D02*
D03*
Y265200D02*
D03*
Y277900D02*
D03*
Y290600D02*
D03*
Y303300D02*
D03*
Y316000D02*
D03*
X893750Y334850D02*
D03*
Y347550D02*
D03*
Y360250D02*
D03*
Y372950D02*
D03*
Y385650D02*
D03*
Y398350D02*
D03*
Y411050D02*
D03*
Y423750D02*
D03*
X835500Y334850D02*
D03*
Y347550D02*
D03*
Y360250D02*
D03*
Y372950D02*
D03*
Y385650D02*
D03*
Y398350D02*
D03*
Y411050D02*
D03*
Y423750D02*
D03*
D50*
X186250Y42000D02*
D03*
X192750D02*
D03*
X199250D02*
D03*
X205750D02*
D03*
X212250D02*
D03*
X218750D02*
D03*
X225250D02*
D03*
X231750D02*
D03*
X238250D02*
D03*
X244750D02*
D03*
X251250D02*
D03*
X257750D02*
D03*
X186250Y101000D02*
D03*
X192750D02*
D03*
X199250D02*
D03*
X205750D02*
D03*
X212250D02*
D03*
X218750D02*
D03*
X225250D02*
D03*
X231750D02*
D03*
X238250D02*
D03*
X244750D02*
D03*
X251250D02*
D03*
X257750D02*
D03*
D51*
X353000Y289250D02*
D03*
Y295750D02*
D03*
Y302250D02*
D03*
Y308750D02*
D03*
Y315250D02*
D03*
Y321750D02*
D03*
Y328250D02*
D03*
Y334750D02*
D03*
Y341250D02*
D03*
Y347750D02*
D03*
Y354250D02*
D03*
Y360750D02*
D03*
X294000Y289250D02*
D03*
Y295750D02*
D03*
Y302250D02*
D03*
Y308750D02*
D03*
Y315250D02*
D03*
Y321750D02*
D03*
Y328250D02*
D03*
Y334750D02*
D03*
Y341250D02*
D03*
Y347750D02*
D03*
Y354250D02*
D03*
Y360750D02*
D03*
D52*
X758250Y238000D02*
D03*
Y231500D02*
D03*
Y225000D02*
D03*
Y218500D02*
D03*
X802750Y238000D02*
D03*
Y231500D02*
D03*
Y225000D02*
D03*
Y218500D02*
D03*
D53*
X146450Y353000D02*
D03*
X159150D02*
D03*
X171850D02*
D03*
X184550D02*
D03*
X146450Y407500D02*
D03*
X159150D02*
D03*
X171850D02*
D03*
X184550D02*
D03*
D54*
X940250Y419800D02*
D03*
X912750D02*
D03*
X940250Y205300D02*
D03*
X912750D02*
D03*
X940250Y312050D02*
D03*
X912750D02*
D03*
X543000Y234250D02*
D03*
X515500D02*
D03*
X187750Y17400D02*
D03*
X215250D02*
D03*
X172500Y435250D02*
D03*
X145000D02*
D03*
D55*
X251388Y161500D02*
D03*
Y134000D02*
D03*
X171750Y161500D02*
D03*
Y134000D02*
D03*
X251500Y287750D02*
D03*
Y315250D02*
D03*
X198500Y287750D02*
D03*
Y315250D02*
D03*
X145250Y161500D02*
D03*
Y134000D02*
D03*
X198250Y161500D02*
D03*
Y134000D02*
D03*
X225000Y287750D02*
D03*
Y315250D02*
D03*
X224750Y161500D02*
D03*
Y134000D02*
D03*
X296000Y224500D02*
D03*
Y197000D02*
D03*
X377500Y290750D02*
D03*
Y318250D02*
D03*
X733500Y239250D02*
D03*
Y211750D02*
D03*
X707000Y239250D02*
D03*
Y211750D02*
D03*
D56*
X322500Y225500D02*
D03*
Y199500D02*
D03*
X494000Y210750D02*
D03*
Y236750D02*
D03*
D57*
X21500Y278250D02*
D03*
Y230250D02*
D03*
X131500Y278500D02*
D03*
Y230500D02*
D03*
D58*
X173500Y461750D02*
D03*
X147500D02*
D03*
D59*
X824750Y451750D02*
D03*
X804750D02*
D03*
X784750D02*
D03*
X764750D02*
D03*
X744750D02*
D03*
X724750D02*
D03*
X704750D02*
D03*
X684750D02*
D03*
X664750D02*
D03*
X644750D02*
D03*
D60*
X307250Y173000D02*
D03*
X332650D02*
D03*
X358050D02*
D03*
X383450D02*
D03*
X408850D02*
D03*
X434250D02*
D03*
X459650D02*
D03*
X485050D02*
D03*
X510450D02*
D03*
X535850D02*
D03*
X561250D02*
D03*
X586650D02*
D03*
X612050D02*
D03*
X637450D02*
D03*
X662850D02*
D03*
X688250D02*
D03*
X713650D02*
D03*
X739050D02*
D03*
X764450D02*
D03*
X789850D02*
D03*
Y20600D02*
D03*
X764450D02*
D03*
X739050D02*
D03*
X713650D02*
D03*
X688250D02*
D03*
X662850D02*
D03*
X637450D02*
D03*
X612050D02*
D03*
X586650D02*
D03*
X561250D02*
D03*
X535850D02*
D03*
X510450D02*
D03*
X485050D02*
D03*
X459650D02*
D03*
X434250D02*
D03*
X408850D02*
D03*
X383450D02*
D03*
X358050D02*
D03*
X332650D02*
D03*
X307250D02*
D03*
X465400Y416650D02*
D03*
X490800D02*
D03*
X516200D02*
D03*
X541600D02*
D03*
X567000D02*
D03*
X592400D02*
D03*
X617800D02*
D03*
X643200D02*
D03*
X668600D02*
D03*
X694000D02*
D03*
X719400D02*
D03*
X744800D02*
D03*
X770200D02*
D03*
X795600D02*
D03*
Y264250D02*
D03*
X770200D02*
D03*
X744800D02*
D03*
X719400D02*
D03*
X694000D02*
D03*
X668600D02*
D03*
X643200D02*
D03*
X617800D02*
D03*
X592400D02*
D03*
X567000D02*
D03*
X541600D02*
D03*
X516200D02*
D03*
X490800D02*
D03*
X465400D02*
D03*
D61*
X50000Y50000D02*
D03*
Y520000D02*
D03*
X900000D02*
D03*
Y50000D02*
D03*
D62*
X23000Y123500D02*
D03*
X93000D02*
D03*
Y186000D02*
D03*
X58250D02*
D03*
X23000D02*
D03*
M02*
