G04 Layer_Physical_Order=2*
G04 Layer_Color=16739179*
%FSLAX44Y44*%
%MOMM*%
G71*
G01*
G75*
%ADD27C,0.3000*%
%ADD28C,0.6000*%
%ADD29C,0.5000*%
%ADD30C,0.4000*%
%ADD31C,0.2500*%
%ADD32O,1.5000X2.0000*%
%ADD33C,1.5000*%
%ADD34C,7.0000*%
%ADD35O,3.0000X4.0000*%
%ADD36C,0.7000*%
%ADD37C,1.0000*%
G36*
X445000Y374326D02*
X429750Y359076D01*
X368988D01*
X368623Y359622D01*
X366969Y360727D01*
X365018Y361115D01*
X363067Y360727D01*
X361413Y359622D01*
X360308Y357968D01*
X359920Y356017D01*
X360308Y354067D01*
X361413Y352413D01*
X363067Y351307D01*
X365018Y350919D01*
X366969Y351307D01*
X368623Y352413D01*
X368988Y352959D01*
X431017D01*
X431017Y352959D01*
X432188Y353191D01*
X433180Y353854D01*
X449326Y370000D01*
X495000D01*
X523786Y341214D01*
X523212Y339828D01*
X399896D01*
X398951Y340460D01*
X397000Y340848D01*
X395049Y340460D01*
X393395Y339355D01*
X392290Y337701D01*
X391902Y335750D01*
X392290Y333799D01*
X393395Y332145D01*
X395049Y331040D01*
X397000Y330652D01*
X398951Y331040D01*
X399896Y331672D01*
X533328D01*
X585000Y280000D01*
Y269390D01*
X584539Y268789D01*
X583632Y266600D01*
X583322Y264250D01*
X583632Y261901D01*
X584539Y259711D01*
X585000Y259110D01*
Y195000D01*
X370000D01*
Y145000D01*
X420000Y95000D01*
Y5000D01*
X50000Y5000D01*
X47050D01*
X41202Y5770D01*
X35504Y7297D01*
X30054Y9554D01*
X24946Y12504D01*
X20266Y16095D01*
X16095Y20266D01*
X12503Y24946D01*
X9554Y30054D01*
X7297Y35504D01*
X5770Y41202D01*
X5000Y47050D01*
X5000Y50000D01*
Y117616D01*
X6500Y117690D01*
X6739Y115265D01*
X7682Y112155D01*
X9214Y109289D01*
X11276Y106776D01*
X13789Y104714D01*
X16655Y103182D01*
X19765Y102239D01*
X22250Y101994D01*
Y123500D01*
Y145006D01*
X19765Y144761D01*
X16655Y143818D01*
X13789Y142286D01*
X11276Y140224D01*
X9214Y137711D01*
X7682Y134845D01*
X6739Y131735D01*
X6500Y129310D01*
X5000Y129384D01*
Y180116D01*
X6500Y180190D01*
X6739Y177766D01*
X7682Y174655D01*
X9214Y171789D01*
X11276Y169276D01*
X13789Y167214D01*
X16655Y165682D01*
X19765Y164739D01*
X22250Y164494D01*
Y186000D01*
Y207506D01*
X19765Y207261D01*
X16655Y206318D01*
X13789Y204786D01*
X11276Y202724D01*
X9214Y200211D01*
X7682Y197345D01*
X6739Y194235D01*
X6500Y191810D01*
X5000Y191884D01*
X5000Y520000D01*
X5000Y522949D01*
X5770Y528798D01*
X7297Y534496D01*
X9554Y539946D01*
X12503Y545054D01*
X16094Y549734D01*
X20266Y553905D01*
X24946Y557496D01*
X30054Y560446D01*
X35504Y562703D01*
X41202Y564230D01*
X47050Y565000D01*
X50000Y565000D01*
X50000Y565000D01*
X445000Y565000D01*
Y374326D01*
D02*
G37*
G36*
X900000Y565000D02*
X900000Y565000D01*
X900000Y565000D01*
X902949Y565000D01*
X908798Y564230D01*
X914496Y562703D01*
X919946Y560446D01*
X925054Y557496D01*
X929734Y553905D01*
X933905Y549734D01*
X937496Y545054D01*
X940446Y539946D01*
X942703Y534496D01*
X944230Y528798D01*
X945000Y522949D01*
X945000Y520000D01*
X945000Y50000D01*
X945000Y50000D01*
X945000Y47050D01*
X944230Y41202D01*
X942703Y35504D01*
X940446Y30054D01*
X937496Y24946D01*
X933905Y20266D01*
X929734Y16095D01*
X925054Y12504D01*
X919946Y9554D01*
X914496Y7297D01*
X908798Y5770D01*
X902949Y5000D01*
X425000D01*
Y15494D01*
X426012Y15907D01*
X426500Y15916D01*
X427831Y14181D01*
X429711Y12739D01*
X431900Y11832D01*
X434250Y11522D01*
X436600Y11832D01*
X438789Y12739D01*
X440669Y14181D01*
X442112Y16061D01*
X443018Y18250D01*
X443328Y20600D01*
X443018Y22950D01*
X442112Y25139D01*
X440669Y27019D01*
X438789Y28461D01*
X436600Y29368D01*
X434250Y29678D01*
X431900Y29368D01*
X429711Y28461D01*
X427831Y27019D01*
X426500Y25284D01*
X426012Y25293D01*
X425000Y25706D01*
Y100000D01*
X375000Y150000D01*
Y166764D01*
X376500Y167273D01*
X377031Y166581D01*
X378911Y165139D01*
X381101Y164232D01*
X383450Y163922D01*
X385799Y164232D01*
X386260Y164422D01*
X443066Y107616D01*
X443066Y107616D01*
X444389Y106732D01*
X445950Y106422D01*
X564106D01*
X564107Y106422D01*
X565667Y106732D01*
X566990Y107616D01*
X567796Y108422D01*
X581123D01*
X581945Y106922D01*
X581662Y105500D01*
X581707Y105275D01*
X581652Y105000D01*
X582040Y103049D01*
X583145Y101395D01*
X584799Y100290D01*
X586750Y99902D01*
X588701Y100290D01*
X589631Y100912D01*
X632433D01*
X633233Y99412D01*
X632902Y97750D01*
X633290Y95799D01*
X634395Y94145D01*
X636049Y93040D01*
X638000Y92652D01*
X639951Y93040D01*
X640507Y93412D01*
X747099D01*
X748256Y92256D01*
X749744Y91261D01*
X751500Y90912D01*
X759117D01*
X759299Y90790D01*
X761250Y90402D01*
X763201Y90790D01*
X764855Y91895D01*
X765960Y93549D01*
X766348Y95500D01*
X765960Y97451D01*
X764855Y99105D01*
X763201Y100210D01*
X761250Y100598D01*
X759299Y100210D01*
X758266Y101309D01*
X758151Y101588D01*
X758960Y102799D01*
X759348Y104750D01*
X758960Y106701D01*
X758812Y106922D01*
X759614Y108422D01*
X824097D01*
X824097Y108422D01*
X825657Y108732D01*
X826981Y109616D01*
X871884Y154520D01*
X871884Y154520D01*
X872768Y155843D01*
X873078Y157403D01*
X873078Y157403D01*
Y232804D01*
X892884Y252610D01*
X892884Y252610D01*
X893768Y253933D01*
X894078Y255493D01*
Y300104D01*
X894710Y301049D01*
X895098Y303000D01*
X894710Y304951D01*
X893605Y306605D01*
X891951Y307710D01*
X890000Y308098D01*
X888049Y307710D01*
X886395Y306605D01*
X885290Y304951D01*
X884902Y303000D01*
X885290Y301049D01*
X885922Y300104D01*
Y257183D01*
X870015Y241276D01*
X868548Y241546D01*
X868393Y241776D01*
X867305Y243405D01*
X865651Y244510D01*
X863700Y244898D01*
X861749Y244510D01*
X861578Y244396D01*
X860078Y245198D01*
Y248543D01*
X860605Y248895D01*
X861710Y250549D01*
X862098Y252500D01*
X861710Y254451D01*
X860605Y256105D01*
X858951Y257210D01*
X857000Y257598D01*
X855078Y257216D01*
X854807Y257162D01*
X853578Y258009D01*
Y261293D01*
X854105Y261645D01*
X855210Y263299D01*
X855598Y265250D01*
X855210Y267201D01*
X854105Y268855D01*
X852451Y269960D01*
X850500Y270348D01*
X848578Y269966D01*
X848307Y269912D01*
X847078Y270759D01*
Y273843D01*
X847755Y274295D01*
X848860Y275949D01*
X849248Y277900D01*
X848860Y279851D01*
X847755Y281505D01*
X846101Y282610D01*
X844150Y282998D01*
X842199Y282610D01*
X841901Y282411D01*
X840578Y283118D01*
Y286376D01*
X841505Y286995D01*
X842610Y288649D01*
X842998Y290600D01*
X842610Y292551D01*
X841505Y294205D01*
X839851Y295310D01*
X837900Y295698D01*
X835949Y295310D01*
X835578Y295062D01*
X834078Y295864D01*
Y298809D01*
X835405Y299695D01*
X836510Y301349D01*
X836898Y303300D01*
X836510Y305251D01*
X835405Y306905D01*
X833751Y308010D01*
X831800Y308398D01*
X829849Y308010D01*
X829078Y307495D01*
X827578Y308297D01*
Y312854D01*
X828210Y313799D01*
X828598Y315750D01*
X828210Y317701D01*
X828049Y317941D01*
X828851Y319441D01*
X900172D01*
Y255770D01*
X899290Y254451D01*
X898902Y252500D01*
X899290Y250549D01*
X900172Y249230D01*
Y148396D01*
X899540Y147451D01*
X899152Y145500D01*
X899540Y143549D01*
X900645Y141895D01*
X902299Y140790D01*
X904250Y140402D01*
X906201Y140790D01*
X907855Y141895D01*
X908960Y143549D01*
X909348Y145500D01*
X908960Y147451D01*
X908328Y148396D01*
Y200437D01*
X909828Y201239D01*
X910799Y200590D01*
X911014Y200547D01*
X924037Y187525D01*
Y168289D01*
X922537Y167834D01*
X921855Y168855D01*
X920201Y169960D01*
X918250Y170348D01*
X916299Y169960D01*
X914645Y168855D01*
X913540Y167201D01*
X913152Y165250D01*
X913540Y163299D01*
X914645Y161645D01*
X915446Y161110D01*
Y124661D01*
X893589Y102804D01*
X870140D01*
X869605Y103605D01*
X867951Y104710D01*
X866000Y105098D01*
X864049Y104710D01*
X862395Y103605D01*
X861290Y101951D01*
X860902Y100000D01*
X861290Y98049D01*
X862395Y96395D01*
X864049Y95290D01*
X866000Y94902D01*
X867951Y95290D01*
X869605Y96395D01*
X870140Y97196D01*
X894750D01*
X895823Y97410D01*
X896733Y98017D01*
X920233Y121517D01*
X920840Y122427D01*
X921054Y123500D01*
Y161110D01*
X921855Y161645D01*
X922537Y162666D01*
X924037Y162211D01*
Y154508D01*
X923915Y154326D01*
X923527Y152375D01*
X923915Y150424D01*
X925020Y148770D01*
X926674Y147665D01*
X928625Y147277D01*
X930576Y147665D01*
X932230Y148770D01*
X933335Y150424D01*
X933723Y152375D01*
X933335Y154326D01*
X933213Y154508D01*
Y189425D01*
X932864Y191181D01*
X931869Y192669D01*
X917503Y207036D01*
X917460Y207251D01*
X916355Y208905D01*
X914701Y210010D01*
X912750Y210398D01*
X910799Y210010D01*
X909828Y209361D01*
X908328Y210163D01*
Y249978D01*
X908710Y250549D01*
X909098Y252500D01*
X908710Y254451D01*
X908328Y255022D01*
Y322750D01*
Y357354D01*
X908960Y358299D01*
X909348Y360250D01*
X908960Y362201D01*
X908328Y363146D01*
Y459500D01*
X908328Y459500D01*
X908018Y461061D01*
X907134Y462384D01*
X907134Y462384D01*
X883994Y485524D01*
X884879Y486760D01*
X886002Y486206D01*
X890533Y484668D01*
X895226Y483735D01*
X900000Y483422D01*
X904774Y483735D01*
X909467Y484668D01*
X913998Y486206D01*
X918289Y488322D01*
X922268Y490980D01*
X925865Y494135D01*
X929019Y497733D01*
X931678Y501711D01*
X933794Y506002D01*
X935332Y510533D01*
X936265Y515226D01*
X936578Y520000D01*
X936265Y524774D01*
X935332Y529467D01*
X933794Y533998D01*
X931678Y538289D01*
X929019Y542267D01*
X925865Y545865D01*
X922268Y549020D01*
X918289Y551678D01*
X913998Y553794D01*
X909467Y555332D01*
X904774Y556265D01*
X900000Y556578D01*
X895226Y556265D01*
X890533Y555332D01*
X886002Y553794D01*
X881711Y551678D01*
X877732Y549020D01*
X874135Y545865D01*
X870981Y542267D01*
X868322Y538289D01*
X866206Y533998D01*
X864668Y529467D01*
X863735Y524774D01*
X863422Y520000D01*
X863735Y515226D01*
X864668Y510533D01*
X866206Y506002D01*
X868322Y501711D01*
X869611Y499782D01*
X868778Y498328D01*
X678250D01*
X676689Y498018D01*
X675366Y497134D01*
X675366Y497134D01*
X661866Y483634D01*
X660982Y482311D01*
X660672Y480750D01*
X660672Y480750D01*
Y462302D01*
X660211Y462112D01*
X658331Y460669D01*
X656889Y458789D01*
X655982Y456600D01*
X655672Y454250D01*
Y449250D01*
X655982Y446900D01*
X656154Y446485D01*
X654882Y445636D01*
X653530Y446988D01*
X653828Y449250D01*
Y454250D01*
X653518Y456600D01*
X652611Y458789D01*
X651169Y460669D01*
X649289Y462112D01*
X647100Y463018D01*
X644750Y463328D01*
X642401Y463018D01*
X640211Y462112D01*
X638331Y460669D01*
X636889Y458789D01*
X635982Y456600D01*
X635672Y454250D01*
Y449250D01*
X635982Y446900D01*
X636889Y444711D01*
X638331Y442831D01*
X640211Y441389D01*
X642401Y440482D01*
X644750Y440172D01*
X647100Y440482D01*
X648090Y440892D01*
X650622Y438361D01*
Y424104D01*
X649122Y423450D01*
X647739Y424511D01*
X645549Y425418D01*
X643200Y425728D01*
X640851Y425418D01*
X638661Y424511D01*
X636781Y423069D01*
X635339Y421189D01*
X634432Y418999D01*
X634122Y416650D01*
X634432Y414300D01*
X635339Y412111D01*
X636781Y410231D01*
X638193Y409148D01*
Y361151D01*
X638072Y360968D01*
X637683Y359017D01*
X638072Y357067D01*
X639177Y355413D01*
X640831Y354308D01*
X642781Y353920D01*
X644732Y354308D01*
X646386Y355413D01*
X647491Y357067D01*
X647879Y359017D01*
X647491Y360968D01*
X647370Y361151D01*
Y408636D01*
X647739Y408789D01*
X649122Y409850D01*
X650622Y409196D01*
Y349139D01*
X641311Y339828D01*
X535172D01*
X500000Y375000D01*
X450000D01*
Y565000D01*
X900000Y565000D01*
D02*
G37*
G36*
X900172Y457811D02*
Y363146D01*
X899540Y362201D01*
X899152Y360250D01*
X899540Y358299D01*
X900172Y357354D01*
Y325559D01*
X835755D01*
X835300Y327059D01*
X836134Y327616D01*
X885384Y376866D01*
X885384Y376866D01*
X886268Y378189D01*
X886578Y379750D01*
Y395354D01*
X887210Y396299D01*
X887598Y398250D01*
X887210Y400201D01*
X886578Y401146D01*
Y443852D01*
X886710Y444049D01*
X887098Y446000D01*
X886710Y447951D01*
X885605Y449605D01*
X883951Y450710D01*
X882000Y451098D01*
X880049Y450710D01*
X878395Y449605D01*
X877290Y447951D01*
X876902Y446000D01*
X877290Y444049D01*
X878395Y442395D01*
X878422Y442378D01*
Y401146D01*
X877790Y400201D01*
X877402Y398250D01*
X877790Y396299D01*
X878422Y395354D01*
Y381439D01*
X831561Y334578D01*
X815646D01*
X814701Y335210D01*
X812750Y335598D01*
X810799Y335210D01*
X809145Y334105D01*
X808040Y332451D01*
X807652Y330500D01*
X808040Y328549D01*
X809145Y326895D01*
X810799Y325790D01*
X812750Y325402D01*
X814701Y325790D01*
X815646Y326422D01*
X818827D01*
X819261Y325530D01*
X819282Y324922D01*
X818895Y324663D01*
X818895Y324663D01*
X803937Y309705D01*
X803274Y308713D01*
X803041Y307542D01*
X803041Y307542D01*
Y271670D01*
X801541Y271035D01*
X800139Y272111D01*
X797950Y273018D01*
X795600Y273328D01*
X793251Y273018D01*
X791061Y272111D01*
X789688Y271058D01*
X788188Y271721D01*
Y402749D01*
X793312Y407874D01*
X795600Y407572D01*
X797950Y407882D01*
X800139Y408789D01*
X802019Y410231D01*
X803462Y412111D01*
X804368Y414300D01*
X804678Y416650D01*
X804368Y418999D01*
X803462Y421189D01*
X802019Y423069D01*
X800139Y424511D01*
X797950Y425418D01*
X795600Y425728D01*
X793251Y425418D01*
X791061Y424511D01*
X789181Y423069D01*
X787739Y421189D01*
X786832Y418999D01*
X786522Y416650D01*
X786824Y414362D01*
X780356Y407894D01*
X779361Y406406D01*
X779012Y404650D01*
Y270014D01*
X777512Y269505D01*
X776619Y270669D01*
X774739Y272111D01*
X772550Y273018D01*
X770200Y273328D01*
X767850Y273018D01*
X765661Y272111D01*
X763781Y270669D01*
X762339Y268789D01*
X761432Y266600D01*
X761122Y264250D01*
X761432Y261901D01*
X762339Y259711D01*
X763781Y257831D01*
X765661Y256389D01*
X767850Y255482D01*
X770200Y255172D01*
X772550Y255482D01*
X774739Y256389D01*
X776619Y257831D01*
X777512Y258995D01*
X779012Y258486D01*
Y235838D01*
X771383D01*
X771201Y235960D01*
X769250Y236348D01*
X767299Y235960D01*
X765645Y234855D01*
X764540Y233201D01*
X764152Y231250D01*
X764540Y229299D01*
X765645Y227645D01*
X767299Y226540D01*
X769250Y226152D01*
X771201Y226540D01*
X771383Y226662D01*
X779012D01*
Y194051D01*
X766738Y181776D01*
X764450Y182078D01*
X762101Y181768D01*
X759911Y180861D01*
X758031Y179419D01*
X756589Y177539D01*
X755682Y175350D01*
X755372Y173000D01*
X755682Y170651D01*
X756589Y168461D01*
X758031Y166581D01*
X759911Y165139D01*
X762101Y164232D01*
X764450Y163922D01*
X766799Y164232D01*
X768989Y165139D01*
X770869Y166581D01*
X772311Y168461D01*
X773218Y170651D01*
X773528Y173000D01*
X773226Y175288D01*
X786844Y188906D01*
X787839Y190394D01*
X788188Y192150D01*
Y231750D01*
Y256779D01*
X789688Y257442D01*
X791061Y256389D01*
X793251Y255482D01*
X795600Y255172D01*
X797950Y255482D01*
X800139Y256389D01*
X800479Y256650D01*
X802129Y256025D01*
X802222Y255548D01*
X798394Y251720D01*
X797750Y251848D01*
X795799Y251460D01*
X794145Y250355D01*
X793040Y248701D01*
X792652Y246750D01*
X793040Y244799D01*
X794145Y243145D01*
X795799Y242040D01*
X797750Y241652D01*
X799701Y242040D01*
X801355Y243145D01*
X802460Y244799D01*
X802848Y246750D01*
X802720Y247394D01*
X808263Y252937D01*
X808926Y253930D01*
X809159Y255100D01*
X809159Y255100D01*
Y306275D01*
X817315Y314432D01*
X818751Y313997D01*
X818790Y313799D01*
X819422Y312854D01*
Y177939D01*
X803561Y162078D01*
X664316D01*
X663060Y162328D01*
X663060Y162328D01*
X612940D01*
X612940Y162328D01*
X611684Y162078D01*
X425539D01*
X417428Y170190D01*
X417618Y170651D01*
X417928Y173000D01*
X417618Y175350D01*
X416712Y177539D01*
X415269Y179419D01*
X413389Y180861D01*
X411199Y181768D01*
X408850Y182078D01*
X406501Y181768D01*
X404311Y180861D01*
X402431Y179419D01*
X400989Y177539D01*
X400082Y175350D01*
X399772Y173000D01*
X400082Y170651D01*
X400989Y168461D01*
X402431Y166581D01*
X404311Y165139D01*
X406501Y164232D01*
X408850Y163922D01*
X411199Y164232D01*
X411660Y164422D01*
X420966Y155116D01*
X420966Y155116D01*
X422289Y154232D01*
X423850Y153922D01*
X423850Y153922D01*
X428491D01*
X429338Y152693D01*
X429284Y152422D01*
X428902Y150500D01*
X429290Y148549D01*
X430395Y146895D01*
X432049Y145790D01*
X434000Y145402D01*
X435951Y145790D01*
X437605Y146895D01*
X437957Y147422D01*
X454241D01*
X455088Y146193D01*
X455034Y145922D01*
X454652Y144000D01*
X455040Y142049D01*
X456145Y140395D01*
X457799Y139290D01*
X459750Y138902D01*
X461701Y139290D01*
X463355Y140395D01*
X463707Y140922D01*
X479491D01*
X480338Y139693D01*
X480284Y139422D01*
X479902Y137500D01*
X480290Y135549D01*
X481395Y133895D01*
X483049Y132790D01*
X485000Y132402D01*
X486951Y132790D01*
X488605Y133895D01*
X488957Y134422D01*
X504741D01*
X505588Y133194D01*
X505534Y132922D01*
X505152Y131000D01*
X505540Y129049D01*
X506645Y127395D01*
X508299Y126290D01*
X510250Y125902D01*
X512201Y126290D01*
X513855Y127395D01*
X514207Y127922D01*
X530241D01*
X531088Y126693D01*
X531034Y126422D01*
X530652Y124500D01*
X531040Y122549D01*
X532145Y120895D01*
X533799Y119790D01*
X535750Y119402D01*
X537701Y119790D01*
X539355Y120895D01*
X539707Y121422D01*
X555491D01*
X556338Y120194D01*
X556284Y119922D01*
X555902Y118000D01*
X556284Y116078D01*
X556338Y115807D01*
X555491Y114578D01*
X447639D01*
X392028Y170190D01*
X392218Y170651D01*
X392528Y173000D01*
X392218Y175350D01*
X391311Y177539D01*
X389869Y179419D01*
X387989Y180861D01*
X385799Y181768D01*
X383450Y182078D01*
X381101Y181768D01*
X378911Y180861D01*
X377031Y179419D01*
X376500Y178727D01*
X375000Y179236D01*
Y190000D01*
X590000D01*
Y253975D01*
X591500Y255291D01*
X591650Y255271D01*
Y264250D01*
Y273229D01*
X591500Y273209D01*
X590000Y274525D01*
Y285000D01*
X544714Y330286D01*
X545288Y331672D01*
X643000D01*
X643000Y331672D01*
X644561Y331982D01*
X645884Y332866D01*
X657584Y344566D01*
X657584Y344566D01*
X658468Y345889D01*
X658778Y347450D01*
X658778Y347450D01*
Y412924D01*
X660278Y413222D01*
X660739Y412111D01*
X662181Y410231D01*
X664012Y408826D01*
Y309000D01*
X627756Y272744D01*
X626761Y271256D01*
X626534Y270115D01*
X624958Y269706D01*
X624219Y270669D01*
X622339Y272111D01*
X620149Y273018D01*
X617800Y273328D01*
X615451Y273018D01*
X613261Y272111D01*
X611381Y270669D01*
X609939Y268789D01*
X609032Y266600D01*
X608722Y264250D01*
X609032Y261901D01*
X609939Y259711D01*
X611381Y257831D01*
X613261Y256389D01*
X615451Y255482D01*
X617800Y255172D01*
X620149Y255482D01*
X622339Y256389D01*
X624219Y257831D01*
X624912Y258734D01*
X626412Y258225D01*
Y219251D01*
X588938Y181776D01*
X586650Y182078D01*
X584300Y181768D01*
X582111Y180861D01*
X580231Y179419D01*
X578789Y177539D01*
X577882Y175350D01*
X577572Y173000D01*
X577882Y170651D01*
X578789Y168461D01*
X580231Y166581D01*
X582111Y165139D01*
X584300Y164232D01*
X586650Y163922D01*
X588999Y164232D01*
X591189Y165139D01*
X593069Y166581D01*
X594511Y168461D01*
X595418Y170651D01*
X595728Y173000D01*
X595426Y175288D01*
X634244Y214106D01*
X635239Y215594D01*
X635588Y217350D01*
Y257126D01*
X637088Y257596D01*
X638661Y256389D01*
X640851Y255482D01*
X643200Y255172D01*
X645549Y255482D01*
X647739Y256389D01*
X649619Y257831D01*
X650512Y258995D01*
X652012Y258486D01*
Y194051D01*
X639738Y181776D01*
X637450Y182078D01*
X635101Y181768D01*
X632911Y180861D01*
X631031Y179419D01*
X629589Y177539D01*
X628682Y175350D01*
X628372Y173000D01*
X628682Y170651D01*
X629589Y168461D01*
X631031Y166581D01*
X632911Y165139D01*
X635101Y164232D01*
X637450Y163922D01*
X639799Y164232D01*
X641989Y165139D01*
X643869Y166581D01*
X645312Y168461D01*
X646218Y170651D01*
X646528Y173000D01*
X646226Y175288D01*
X659844Y188906D01*
X660839Y190394D01*
X661188Y192150D01*
Y256779D01*
X662688Y257442D01*
X664061Y256389D01*
X666251Y255482D01*
X668600Y255172D01*
X670949Y255482D01*
X673139Y256389D01*
X675019Y257831D01*
X676461Y259711D01*
X677368Y261901D01*
X677678Y264250D01*
X677368Y266600D01*
X676461Y268789D01*
X675019Y270669D01*
X673139Y272111D01*
X670949Y273018D01*
X668898Y273288D01*
X668123Y274635D01*
X722644Y329156D01*
X723639Y330644D01*
X723988Y332400D01*
Y408826D01*
X725819Y410231D01*
X727262Y412111D01*
X728168Y414300D01*
X728478Y416650D01*
X728168Y418999D01*
X727262Y421189D01*
X726208Y422562D01*
X726871Y424062D01*
X730900D01*
X736024Y418938D01*
X735722Y416650D01*
X736032Y414300D01*
X736939Y412111D01*
X738381Y410231D01*
X740261Y408789D01*
X742450Y407882D01*
X744800Y407572D01*
X747150Y407882D01*
X749339Y408789D01*
X750712Y409842D01*
X752212Y409179D01*
Y327551D01*
X704156Y279494D01*
X703161Y278006D01*
X702812Y276250D01*
Y270014D01*
X701312Y269505D01*
X700419Y270669D01*
X698539Y272111D01*
X696349Y273018D01*
X694000Y273328D01*
X691650Y273018D01*
X689461Y272111D01*
X687581Y270669D01*
X686139Y268789D01*
X685232Y266600D01*
X684922Y264250D01*
X685232Y261901D01*
X686139Y259711D01*
X687581Y257831D01*
X689461Y256389D01*
X691650Y255482D01*
X694000Y255172D01*
X696349Y255482D01*
X698539Y256389D01*
X700419Y257831D01*
X701312Y258995D01*
X702812Y258486D01*
Y255800D01*
X676514Y229503D01*
X676299Y229460D01*
X674645Y228355D01*
X673540Y226701D01*
X673152Y224750D01*
X673540Y222799D01*
X674645Y221145D01*
X676299Y220040D01*
X678250Y219652D01*
X680201Y220040D01*
X681855Y221145D01*
X682960Y222799D01*
X683003Y223014D01*
X710644Y250656D01*
X711639Y252144D01*
X711988Y253900D01*
Y256779D01*
X713488Y257442D01*
X714861Y256389D01*
X717050Y255482D01*
X719400Y255172D01*
X721749Y255482D01*
X723939Y256389D01*
X725819Y257831D01*
X727262Y259711D01*
X728168Y261901D01*
X728478Y264250D01*
X728168Y266600D01*
X727262Y268789D01*
X725819Y270669D01*
X723939Y272111D01*
X721749Y273018D01*
X719400Y273328D01*
X717050Y273018D01*
X714861Y272111D01*
X713488Y271058D01*
X711988Y271721D01*
Y274349D01*
X760044Y322406D01*
X761039Y323894D01*
X761388Y325650D01*
Y410886D01*
X762888Y411395D01*
X763781Y410231D01*
X765172Y409164D01*
Y346896D01*
X764540Y345951D01*
X764152Y344000D01*
X764540Y342049D01*
X765645Y340395D01*
X767299Y339290D01*
X769250Y338902D01*
X771201Y339290D01*
X772855Y340395D01*
X773960Y342049D01*
X774348Y344000D01*
X773960Y345951D01*
X773328Y346896D01*
Y408204D01*
X774739Y408789D01*
X776619Y410231D01*
X778062Y412111D01*
X778968Y414300D01*
X779278Y416650D01*
X778968Y418999D01*
X778062Y421189D01*
X776619Y423069D01*
X774739Y424511D01*
X772550Y425418D01*
X770834Y425644D01*
X770242Y427174D01*
X775730Y432662D01*
X789721D01*
X791476Y433011D01*
X792965Y434006D01*
X800308Y441348D01*
X802401Y440482D01*
X804750Y440172D01*
X807100Y440482D01*
X809289Y441389D01*
X811169Y442831D01*
X812611Y444711D01*
X813518Y446900D01*
X813828Y449250D01*
Y454250D01*
X813518Y456600D01*
X812611Y458789D01*
X811535Y460191D01*
X812170Y461691D01*
X817330D01*
X817965Y460191D01*
X816889Y458789D01*
X815982Y456600D01*
X815672Y454250D01*
Y452500D01*
X824750D01*
Y451750D01*
X825500D01*
Y440271D01*
X827100Y440482D01*
X829289Y441389D01*
X830691Y442465D01*
X832191Y441830D01*
Y431017D01*
X798337Y397163D01*
X797674Y396171D01*
X797441Y395000D01*
X797441Y395000D01*
Y337970D01*
X796895Y337605D01*
X795790Y335951D01*
X795402Y334000D01*
X795790Y332049D01*
X796895Y330395D01*
X798549Y329290D01*
X800500Y328902D01*
X802451Y329290D01*
X804105Y330395D01*
X805210Y332049D01*
X805598Y334000D01*
X805210Y335951D01*
X804105Y337605D01*
X803559Y337970D01*
Y393733D01*
X837413Y427587D01*
X837413Y427587D01*
X838076Y428579D01*
X838309Y429750D01*
Y458599D01*
X838076Y459770D01*
X837413Y460762D01*
X837413Y460762D01*
X831262Y466913D01*
X830270Y467576D01*
X829099Y467809D01*
X829099Y467809D01*
X757750D01*
X757750Y467809D01*
X756579Y467576D01*
X755587Y466913D01*
X755587Y466913D01*
X750136Y461462D01*
X749289Y462112D01*
X747100Y463018D01*
X744750Y463328D01*
X742401Y463018D01*
X740211Y462112D01*
X738331Y460669D01*
X736889Y458789D01*
X735982Y456600D01*
X735672Y454250D01*
Y449250D01*
X735982Y446900D01*
X736889Y444711D01*
X738331Y442831D01*
X740211Y441389D01*
X742401Y440482D01*
X744750Y440172D01*
X747100Y440482D01*
X749289Y441389D01*
X751169Y442831D01*
X752611Y444711D01*
X753518Y446900D01*
X753828Y449250D01*
Y454250D01*
X753566Y456240D01*
X754587Y457262D01*
X755875Y456640D01*
X755972Y456525D01*
X755672Y454250D01*
Y449250D01*
X755982Y446900D01*
X756889Y444711D01*
X758331Y442831D01*
X760211Y441389D01*
X762401Y440482D01*
X764750Y440172D01*
X767100Y440482D01*
X769289Y441389D01*
X771169Y442831D01*
X772611Y444711D01*
X773518Y446900D01*
X773828Y449250D01*
Y454250D01*
X773518Y456600D01*
X772611Y458789D01*
X771535Y460191D01*
X772170Y461691D01*
X777330D01*
X777965Y460191D01*
X776889Y458789D01*
X775982Y456600D01*
X775672Y454250D01*
Y449250D01*
X775982Y446900D01*
X776889Y444711D01*
X777942Y443338D01*
X777279Y441838D01*
X773829D01*
X772074Y441489D01*
X770585Y440494D01*
X753556Y423465D01*
X753207Y422942D01*
X751362Y422882D01*
X751219Y423069D01*
X749339Y424511D01*
X747150Y425418D01*
X744800Y425728D01*
X742512Y425426D01*
X736044Y431894D01*
X734556Y432889D01*
X732800Y433238D01*
X711301D01*
X710727Y434624D01*
X718672Y442569D01*
X720211Y441389D01*
X722401Y440482D01*
X724750Y440172D01*
X727100Y440482D01*
X729289Y441389D01*
X731169Y442831D01*
X732611Y444711D01*
X733518Y446900D01*
X733828Y449250D01*
Y454250D01*
X733518Y456600D01*
X732611Y458789D01*
X731169Y460669D01*
X729289Y462112D01*
X727100Y463018D01*
X724750Y463328D01*
X722401Y463018D01*
X720211Y462112D01*
X718331Y460669D01*
X716889Y458789D01*
X715982Y456600D01*
X715672Y454250D01*
Y450799D01*
X715328Y450569D01*
X713828Y451370D01*
Y454250D01*
X713518Y456600D01*
X712611Y458789D01*
X711611Y460093D01*
X726439Y474922D01*
X838811D01*
X852672Y461061D01*
Y397500D01*
X852672Y397500D01*
X852982Y395939D01*
X853866Y394616D01*
X864944Y383538D01*
X865290Y381799D01*
X866395Y380145D01*
X868049Y379040D01*
X870000Y378652D01*
X871951Y379040D01*
X873605Y380145D01*
X874710Y381799D01*
X875098Y383750D01*
X874710Y385701D01*
X873605Y387355D01*
X871951Y388460D01*
X871460Y388558D01*
X860828Y399189D01*
Y462750D01*
X860828Y462750D01*
X860518Y464311D01*
X859634Y465634D01*
X843384Y481884D01*
X842061Y482768D01*
X840500Y483078D01*
X840500Y483078D01*
X724750D01*
X724750Y483078D01*
X723189Y482768D01*
X721866Y481884D01*
X721866Y481884D01*
X703092Y463109D01*
X702401Y463018D01*
X700211Y462112D01*
X698331Y460669D01*
X696889Y458789D01*
X695982Y456600D01*
X695672Y454250D01*
Y449250D01*
X695982Y446900D01*
X696889Y444711D01*
X698331Y442831D01*
X700211Y441389D01*
X702401Y440482D01*
X704141Y440253D01*
X704746Y438737D01*
X697228Y431219D01*
X689444D01*
X688078Y430947D01*
X686920Y430173D01*
X680477Y423730D01*
X679703Y422572D01*
X679431Y421206D01*
Y349425D01*
X678507Y348355D01*
X676556Y347967D01*
X674903Y346862D01*
X674688Y346541D01*
X673188Y346996D01*
Y408826D01*
X675019Y410231D01*
X676461Y412111D01*
X677368Y414300D01*
X677678Y416650D01*
X677368Y418999D01*
X676461Y421189D01*
X675019Y423069D01*
X673139Y424511D01*
X670949Y425418D01*
X668600Y425728D01*
X666251Y425418D01*
X664061Y424511D01*
X662181Y423069D01*
X660739Y421189D01*
X660278Y420078D01*
X658778Y420376D01*
Y440050D01*
X658778Y440050D01*
X658650Y440696D01*
X660011Y441542D01*
X660211Y441389D01*
X662401Y440482D01*
X664750Y440172D01*
X667100Y440482D01*
X669289Y441389D01*
X671169Y442831D01*
X672611Y444711D01*
X673518Y446900D01*
X673828Y449250D01*
Y454250D01*
X673518Y456600D01*
X672611Y458789D01*
X671169Y460669D01*
X669289Y462112D01*
X668828Y462302D01*
Y479061D01*
X679939Y490172D01*
X867811D01*
X900172Y457811D01*
D02*
G37*
G36*
X711746Y423673D02*
X712358Y422257D01*
X711539Y421189D01*
X710632Y418999D01*
X710322Y416650D01*
X710632Y414300D01*
X711539Y412111D01*
X712981Y410231D01*
X714812Y408826D01*
Y334300D01*
X653356Y272844D01*
X652361Y271356D01*
X652077Y269929D01*
X651189Y269548D01*
X650512Y269505D01*
X649619Y270669D01*
X647739Y272111D01*
X645549Y273018D01*
X643410Y273300D01*
X642587Y274598D01*
X671844Y303856D01*
X672839Y305344D01*
X673188Y307100D01*
Y339518D01*
X674688Y339973D01*
X674903Y339653D01*
X676556Y338548D01*
X678507Y338159D01*
X680458Y338548D01*
X682112Y339653D01*
X683217Y341306D01*
X683605Y343257D01*
X683597Y343300D01*
X685523Y345227D01*
X686297Y346384D01*
X686569Y347750D01*
Y409213D01*
X688069Y409857D01*
X689461Y408789D01*
X689922Y408598D01*
Y326000D01*
X689922Y326000D01*
X690011Y325549D01*
X689902Y325000D01*
X690290Y323049D01*
X691395Y321395D01*
X693049Y320290D01*
X695000Y319902D01*
X696951Y320290D01*
X698605Y321395D01*
X699710Y323049D01*
X700098Y325000D01*
X699710Y326951D01*
X698605Y328605D01*
X698078Y328957D01*
Y408598D01*
X698539Y408789D01*
X700419Y410231D01*
X701861Y412111D01*
X702768Y414300D01*
X703078Y416650D01*
X703054Y416831D01*
X703080Y416836D01*
X704568Y417831D01*
X710549Y423812D01*
X711746Y423673D01*
D02*
G37*
%LPC*%
G36*
X50000Y556578D02*
X45226Y556265D01*
X40533Y555332D01*
X36002Y553794D01*
X31711Y551678D01*
X27733Y549020D01*
X24135Y545865D01*
X20981Y542267D01*
X18322Y538289D01*
X16206Y533998D01*
X14668Y529467D01*
X13735Y524774D01*
X13422Y520000D01*
X13735Y515226D01*
X14668Y510533D01*
X16206Y506002D01*
X18322Y501711D01*
X20981Y497733D01*
X24135Y494135D01*
X27733Y490980D01*
X31711Y488322D01*
X36002Y486206D01*
X40533Y484668D01*
X45226Y483735D01*
X50000Y483422D01*
X54774Y483735D01*
X59467Y484668D01*
X63998Y486206D01*
X68289Y488322D01*
X72267Y490980D01*
X75865Y494135D01*
X79019Y497733D01*
X81678Y501711D01*
X83794Y506002D01*
X85332Y510533D01*
X86265Y515226D01*
X86578Y520000D01*
X86265Y524774D01*
X85332Y529467D01*
X83794Y533998D01*
X81678Y538289D01*
X79019Y542267D01*
X75865Y545865D01*
X72267Y549020D01*
X68289Y551678D01*
X63998Y553794D01*
X59467Y555332D01*
X54774Y556265D01*
X50000Y556578D01*
D02*
G37*
G36*
X293500Y386598D02*
X291549Y386210D01*
X289895Y385105D01*
X288790Y383451D01*
X288402Y381500D01*
X288790Y379549D01*
X289895Y377895D01*
X291549Y376790D01*
X293500Y376402D01*
X295451Y376790D01*
X296396Y377422D01*
X349730D01*
X351049Y376540D01*
X353000Y376152D01*
X354951Y376540D01*
X356605Y377645D01*
X357710Y379299D01*
X358098Y381250D01*
X357710Y383201D01*
X356605Y384855D01*
X354951Y385960D01*
X353000Y386348D01*
X351049Y385960D01*
X350478Y385578D01*
X296396D01*
X295451Y386210D01*
X293500Y386598D01*
D02*
G37*
G36*
X205000Y350098D02*
X203049Y349710D01*
X201395Y348605D01*
X201371Y348569D01*
X151750D01*
X150384Y348297D01*
X149227Y347523D01*
X146543Y344839D01*
X146500Y344848D01*
X144549Y344460D01*
X142895Y343355D01*
X141790Y341701D01*
X141402Y339750D01*
X141790Y337799D01*
X142895Y336145D01*
X144549Y335040D01*
X146500Y334652D01*
X148451Y335040D01*
X150105Y336145D01*
X151210Y337799D01*
X151598Y339750D01*
X151589Y339793D01*
X153228Y341431D01*
X201371D01*
X201395Y341395D01*
X203049Y340290D01*
X205000Y339902D01*
X206951Y340290D01*
X208605Y341395D01*
X209710Y343049D01*
X210098Y345000D01*
X209710Y346951D01*
X208605Y348605D01*
X206951Y349710D01*
X205000Y350098D01*
D02*
G37*
G36*
X171750Y393098D02*
X169799Y392710D01*
X168145Y391605D01*
X167040Y389951D01*
X166652Y388000D01*
X167040Y386049D01*
X168145Y384395D01*
X169799Y383290D01*
X171750Y382902D01*
X173701Y383290D01*
X175355Y384395D01*
X175379Y384431D01*
X184022D01*
X271411Y297043D01*
X271402Y297000D01*
X271790Y295049D01*
X272895Y293395D01*
X274549Y292290D01*
X276500Y291902D01*
X278451Y292290D01*
X280105Y293395D01*
X281210Y295049D01*
X281598Y297000D01*
X281210Y298951D01*
X280105Y300605D01*
X278451Y301710D01*
X276500Y302098D01*
X276457Y302089D01*
X188023Y390523D01*
X186866Y391297D01*
X185500Y391569D01*
X175379D01*
X175355Y391605D01*
X173701Y392710D01*
X171750Y393098D01*
D02*
G37*
G36*
X366750Y309848D02*
X364799Y309460D01*
X363145Y308355D01*
X362040Y306701D01*
X361652Y304750D01*
X362040Y302799D01*
X363145Y301145D01*
X363181Y301121D01*
Y295250D01*
X363453Y293884D01*
X364227Y292727D01*
X378977Y277977D01*
X380134Y277203D01*
X381500Y276931D01*
X441250D01*
X442616Y277203D01*
X443773Y277977D01*
X462998Y297201D01*
X464701Y297540D01*
X466355Y298645D01*
X467460Y300299D01*
X467848Y302250D01*
X467460Y304201D01*
X466355Y305855D01*
X464701Y306960D01*
X462750Y307348D01*
X460799Y306960D01*
X459145Y305855D01*
X458040Y304201D01*
X457652Y302250D01*
X457702Y301999D01*
X439772Y284069D01*
X430071D01*
X429616Y285569D01*
X430105Y285895D01*
X431210Y287549D01*
X431598Y289500D01*
X431210Y291451D01*
X430105Y293105D01*
X428451Y294210D01*
X426500Y294598D01*
X424549Y294210D01*
X422895Y293105D01*
X422530Y292559D01*
X401470D01*
X401105Y293105D01*
X399451Y294210D01*
X397500Y294598D01*
X395549Y294210D01*
X393895Y293105D01*
X392790Y291451D01*
X392402Y289500D01*
X392790Y287549D01*
X393895Y285895D01*
X394384Y285569D01*
X393929Y284069D01*
X382978D01*
X370319Y296728D01*
Y301121D01*
X370355Y301145D01*
X371115Y302283D01*
X372707Y301966D01*
X372790Y301549D01*
X373895Y299895D01*
X375549Y298790D01*
X377500Y298402D01*
X379451Y298790D01*
X380396Y299422D01*
X424104D01*
X425049Y298790D01*
X427000Y298402D01*
X428951Y298790D01*
X430605Y299895D01*
X431710Y301549D01*
X432098Y303500D01*
X431710Y305451D01*
X430605Y307105D01*
X428951Y308210D01*
X427000Y308598D01*
X425049Y308210D01*
X424104Y307578D01*
X380396D01*
X379451Y308210D01*
X377500Y308598D01*
X375549Y308210D01*
X373895Y307105D01*
X373135Y305967D01*
X371543Y306284D01*
X371460Y306701D01*
X370355Y308355D01*
X368701Y309460D01*
X366750Y309848D01*
D02*
G37*
G36*
X103250Y346598D02*
X101299Y346210D01*
X99645Y345105D01*
X98540Y343451D01*
X98152Y341500D01*
X98540Y339549D01*
X99645Y337895D01*
X101299Y336790D01*
X103250Y336402D01*
X103293Y336411D01*
X163977Y275727D01*
X165134Y274953D01*
X166500Y274681D01*
X284871D01*
X284895Y274645D01*
X286549Y273540D01*
X288500Y273152D01*
X290451Y273540D01*
X292105Y274645D01*
X293210Y276299D01*
X293598Y278250D01*
X293210Y280201D01*
X292105Y281855D01*
X290451Y282960D01*
X288500Y283348D01*
X286549Y282960D01*
X284895Y281855D01*
X284871Y281819D01*
X167978D01*
X108339Y341457D01*
X108348Y341500D01*
X107960Y343451D01*
X106855Y345105D01*
X105201Y346210D01*
X103250Y346598D01*
D02*
G37*
G36*
X325000Y336598D02*
X323049Y336210D01*
X321395Y335105D01*
X320290Y333451D01*
X319902Y331500D01*
X320290Y329549D01*
X321395Y327895D01*
X323049Y326790D01*
X323264Y326747D01*
X333256Y316756D01*
X334744Y315761D01*
X336500Y315412D01*
X483950D01*
X532824Y266538D01*
X532522Y264250D01*
X532832Y261901D01*
X533739Y259711D01*
X535181Y257831D01*
X537061Y256389D01*
X539250Y255482D01*
X541600Y255172D01*
X543950Y255482D01*
X546139Y256389D01*
X548019Y257831D01*
X549462Y259711D01*
X550368Y261901D01*
X550678Y264250D01*
X550368Y266600D01*
X549462Y268789D01*
X548019Y270669D01*
X546139Y272111D01*
X543950Y273018D01*
X541600Y273328D01*
X539312Y273027D01*
X489094Y323244D01*
X487606Y324239D01*
X485850Y324588D01*
X338400D01*
X329753Y333236D01*
X329710Y333451D01*
X328605Y335105D01*
X326951Y336210D01*
X325000Y336598D01*
D02*
G37*
G36*
X516200Y273328D02*
X513851Y273018D01*
X511661Y272111D01*
X509781Y270669D01*
X508339Y268789D01*
X507432Y266600D01*
X507122Y264250D01*
X507432Y261901D01*
X508339Y259711D01*
X509781Y257831D01*
X511661Y256389D01*
X513851Y255482D01*
X516200Y255172D01*
X518549Y255482D01*
X520739Y256389D01*
X522619Y257831D01*
X524062Y259711D01*
X524968Y261901D01*
X525278Y264250D01*
X524968Y266600D01*
X524062Y268789D01*
X522619Y270669D01*
X520739Y272111D01*
X518549Y273018D01*
X516200Y273328D01*
D02*
G37*
G36*
X490800D02*
X488451Y273018D01*
X486261Y272111D01*
X484381Y270669D01*
X482939Y268789D01*
X482032Y266600D01*
X481722Y264250D01*
X482032Y261901D01*
X482939Y259711D01*
X484381Y257831D01*
X486261Y256389D01*
X488451Y255482D01*
X490800Y255172D01*
X493149Y255482D01*
X495339Y256389D01*
X497219Y257831D01*
X498661Y259711D01*
X499568Y261901D01*
X499878Y264250D01*
X499568Y266600D01*
X498661Y268789D01*
X497219Y270669D01*
X495339Y272111D01*
X493149Y273018D01*
X490800Y273328D01*
D02*
G37*
G36*
X320000Y313598D02*
X318049Y313210D01*
X316395Y312105D01*
X315290Y310451D01*
X314902Y308500D01*
X315290Y306549D01*
X316395Y304895D01*
X318049Y303790D01*
X318264Y303747D01*
X361006Y261006D01*
X362494Y260011D01*
X364250Y259662D01*
X457576D01*
X458981Y257831D01*
X460861Y256389D01*
X463050Y255482D01*
X465400Y255172D01*
X467749Y255482D01*
X469939Y256389D01*
X471819Y257831D01*
X473261Y259711D01*
X474168Y261901D01*
X474478Y264250D01*
X474168Y266600D01*
X473261Y268789D01*
X471819Y270669D01*
X469939Y272111D01*
X467749Y273018D01*
X465400Y273328D01*
X463050Y273018D01*
X460861Y272111D01*
X458981Y270669D01*
X457576Y268838D01*
X366150D01*
X324753Y310236D01*
X324710Y310451D01*
X323605Y312105D01*
X321951Y313210D01*
X320000Y313598D01*
D02*
G37*
G36*
X23750Y207506D02*
Y186750D01*
X39580D01*
Y191000D01*
X39261Y194235D01*
X38318Y197345D01*
X36786Y200211D01*
X34724Y202724D01*
X32211Y204786D01*
X29345Y206318D01*
X26235Y207261D01*
X23750Y207506D01*
D02*
G37*
G36*
X39580Y185250D02*
X23750D01*
Y164494D01*
X26235Y164739D01*
X29345Y165682D01*
X32211Y167214D01*
X34724Y169276D01*
X36786Y171789D01*
X38318Y174655D01*
X39261Y177766D01*
X39580Y181000D01*
Y185250D01*
D02*
G37*
G36*
X58250Y207580D02*
X55015Y207261D01*
X51905Y206318D01*
X49039Y204786D01*
X46526Y202724D01*
X44464Y200211D01*
X42932Y197345D01*
X41989Y194235D01*
X41670Y191000D01*
Y181000D01*
X41989Y177766D01*
X42932Y174655D01*
X44464Y171789D01*
X46526Y169276D01*
X49039Y167214D01*
X51905Y165682D01*
X55015Y164739D01*
X58250Y164420D01*
X61485Y164739D01*
X64595Y165682D01*
X67461Y167214D01*
X69974Y169276D01*
X72036Y171789D01*
X73568Y174655D01*
X74511Y177766D01*
X74830Y181000D01*
Y191000D01*
X74511Y194235D01*
X73568Y197345D01*
X72036Y200211D01*
X69974Y202724D01*
X67461Y204786D01*
X64595Y206318D01*
X61485Y207261D01*
X58250Y207580D01*
D02*
G37*
G36*
X332650Y182078D02*
X330300Y181768D01*
X328111Y180861D01*
X326231Y179419D01*
X324789Y177539D01*
X323882Y175350D01*
X323572Y173000D01*
X323882Y170651D01*
X324789Y168461D01*
X326231Y166581D01*
X328111Y165139D01*
X330300Y164232D01*
X332650Y163922D01*
X335000Y164232D01*
X337189Y165139D01*
X339069Y166581D01*
X340512Y168461D01*
X341418Y170651D01*
X341728Y173000D01*
X341418Y175350D01*
X340512Y177539D01*
X339069Y179419D01*
X337189Y180861D01*
X335000Y181768D01*
X332650Y182078D01*
D02*
G37*
G36*
X307250D02*
X304900Y181768D01*
X302711Y180861D01*
X300831Y179419D01*
X299389Y177539D01*
X298482Y175350D01*
X298172Y173000D01*
X298482Y170651D01*
X299389Y168461D01*
X300831Y166581D01*
X302711Y165139D01*
X304900Y164232D01*
X307250Y163922D01*
X309599Y164232D01*
X311789Y165139D01*
X313669Y166581D01*
X315112Y168461D01*
X316018Y170651D01*
X316328Y173000D01*
X316018Y175350D01*
X315112Y177539D01*
X313669Y179419D01*
X311789Y180861D01*
X309599Y181768D01*
X307250Y182078D01*
D02*
G37*
G36*
X23750Y145006D02*
Y124250D01*
X39580D01*
Y128500D01*
X39261Y131735D01*
X38318Y134845D01*
X36786Y137711D01*
X34724Y140224D01*
X32211Y142286D01*
X29345Y143818D01*
X26235Y144761D01*
X23750Y145006D01*
D02*
G37*
G36*
X39580Y122750D02*
X23750D01*
Y101994D01*
X26235Y102239D01*
X29345Y103182D01*
X32211Y104714D01*
X34724Y106776D01*
X36786Y109289D01*
X38318Y112155D01*
X39261Y115265D01*
X39580Y118500D01*
Y122750D01*
D02*
G37*
G36*
X93000Y207580D02*
X89766Y207261D01*
X86655Y206318D01*
X83789Y204786D01*
X81276Y202724D01*
X79214Y200211D01*
X77682Y197345D01*
X76739Y194235D01*
X76420Y191000D01*
Y181000D01*
X76739Y177766D01*
X77682Y174655D01*
X79214Y171789D01*
X81276Y169276D01*
X83789Y167214D01*
X85944Y166062D01*
Y143438D01*
X83789Y142286D01*
X81276Y140224D01*
X79214Y137711D01*
X77682Y134845D01*
X76739Y131735D01*
X76420Y128500D01*
Y118500D01*
X76739Y115265D01*
X77682Y112155D01*
X79214Y109289D01*
X81276Y106776D01*
X83789Y104714D01*
X86655Y103182D01*
X89766Y102239D01*
X93000Y101920D01*
X96235Y102239D01*
X99345Y103182D01*
X102211Y104714D01*
X104724Y106776D01*
X106786Y109289D01*
X108318Y112155D01*
X109261Y115265D01*
X109580Y118500D01*
Y128500D01*
X109261Y131735D01*
X108318Y134845D01*
X106786Y137711D01*
X104724Y140224D01*
X102211Y142286D01*
X99345Y143818D01*
X99056Y143905D01*
Y165595D01*
X99345Y165682D01*
X102211Y167214D01*
X104724Y169276D01*
X106786Y171789D01*
X108318Y174655D01*
X109261Y177766D01*
X109580Y181000D01*
Y191000D01*
X109261Y194235D01*
X108318Y197345D01*
X106786Y200211D01*
X104724Y202724D01*
X102211Y204786D01*
X99345Y206318D01*
X96235Y207261D01*
X93000Y207580D01*
D02*
G37*
G36*
X358050Y182078D02*
X355700Y181768D01*
X353511Y180861D01*
X351631Y179419D01*
X350189Y177539D01*
X349282Y175350D01*
X348972Y173000D01*
X349282Y170651D01*
X350189Y168461D01*
X351631Y166581D01*
X353462Y165176D01*
Y107701D01*
X340350Y94588D01*
X246633D01*
X246451Y94710D01*
X244500Y95098D01*
X242549Y94710D01*
X240895Y93605D01*
X239790Y91951D01*
X239402Y90000D01*
X239790Y88049D01*
X240895Y86395D01*
X242549Y85290D01*
X244500Y84902D01*
X246451Y85290D01*
X246633Y85412D01*
X342250D01*
X344006Y85761D01*
X345494Y86756D01*
X361294Y102556D01*
X362289Y104044D01*
X362638Y105800D01*
Y165176D01*
X364469Y166581D01*
X365911Y168461D01*
X366818Y170651D01*
X367128Y173000D01*
X366818Y175350D01*
X365911Y177539D01*
X364469Y179419D01*
X362589Y180861D01*
X360400Y181768D01*
X358050Y182078D01*
D02*
G37*
G36*
X567000Y273328D02*
X564650Y273018D01*
X562461Y272111D01*
X560581Y270669D01*
X559139Y268789D01*
X558232Y266600D01*
X557922Y264250D01*
X558232Y261901D01*
X559139Y259711D01*
X560581Y257831D01*
X562412Y256426D01*
Y225401D01*
X553600Y216588D01*
X310500D01*
X308744Y216239D01*
X307256Y215244D01*
X225006Y132994D01*
X224011Y131506D01*
X223662Y129750D01*
Y88383D01*
X223540Y88201D01*
X223152Y86250D01*
X223540Y84299D01*
X224645Y82645D01*
X226299Y81540D01*
X228250Y81152D01*
X230201Y81540D01*
X231855Y82645D01*
X232960Y84299D01*
X233348Y86250D01*
X232960Y88201D01*
X232838Y88383D01*
Y127850D01*
X312400Y207412D01*
X555500D01*
X557256Y207761D01*
X558744Y208756D01*
X570244Y220256D01*
X571239Y221744D01*
X571588Y223500D01*
Y256426D01*
X573419Y257831D01*
X574861Y259711D01*
X575768Y261901D01*
X576078Y264250D01*
X575768Y266600D01*
X574861Y268789D01*
X573419Y270669D01*
X571539Y272111D01*
X569350Y273018D01*
X567000Y273328D01*
D02*
G37*
G36*
X267000Y48348D02*
X265049Y47960D01*
X263395Y46855D01*
X262290Y45201D01*
X261902Y43250D01*
X262290Y41299D01*
X263395Y39645D01*
X263941Y39280D01*
Y26887D01*
X263145Y26355D01*
X262040Y24701D01*
X261652Y22750D01*
X262040Y20799D01*
X263145Y19145D01*
X264799Y18040D01*
X266750Y17652D01*
X268701Y18040D01*
X270355Y19145D01*
X271460Y20799D01*
X271848Y22750D01*
X271460Y24701D01*
X270355Y26355D01*
X270059Y26553D01*
Y39280D01*
X270605Y39645D01*
X271710Y41299D01*
X272098Y43250D01*
X271710Y45201D01*
X270605Y46855D01*
X268951Y47960D01*
X267000Y48348D01*
D02*
G37*
G36*
X50000Y86578D02*
X45226Y86265D01*
X40533Y85332D01*
X36002Y83794D01*
X31711Y81678D01*
X27733Y79019D01*
X24135Y75865D01*
X20981Y72267D01*
X18322Y68289D01*
X16206Y63998D01*
X14668Y59467D01*
X13735Y54774D01*
X13422Y50000D01*
X13735Y45226D01*
X14668Y40533D01*
X16206Y36002D01*
X18322Y31711D01*
X20981Y27733D01*
X24135Y24135D01*
X27733Y20981D01*
X31711Y18322D01*
X36002Y16206D01*
X40533Y14668D01*
X45226Y13735D01*
X50000Y13422D01*
X54774Y13735D01*
X59467Y14668D01*
X63998Y16206D01*
X68289Y18322D01*
X72267Y20981D01*
X75865Y24135D01*
X79019Y27733D01*
X81678Y31711D01*
X83794Y36002D01*
X85332Y40533D01*
X86265Y45226D01*
X86578Y50000D01*
X86265Y54774D01*
X85332Y59467D01*
X83794Y63998D01*
X81678Y68289D01*
X79019Y72267D01*
X75865Y75865D01*
X72267Y79019D01*
X68289Y81678D01*
X63998Y83794D01*
X59467Y85332D01*
X54774Y86265D01*
X50000Y86578D01*
D02*
G37*
G36*
X408850Y29678D02*
X406501Y29368D01*
X404311Y28461D01*
X402431Y27019D01*
X400989Y25139D01*
X400082Y22950D01*
X399772Y20600D01*
X400082Y18250D01*
X400989Y16061D01*
X402431Y14181D01*
X404311Y12739D01*
X406501Y11832D01*
X408850Y11522D01*
X411199Y11832D01*
X413389Y12739D01*
X415269Y14181D01*
X416712Y16061D01*
X417618Y18250D01*
X417928Y20600D01*
X417618Y22950D01*
X416712Y25139D01*
X415269Y27019D01*
X413389Y28461D01*
X411199Y29368D01*
X408850Y29678D01*
D02*
G37*
G36*
X218250Y79098D02*
X216299Y78710D01*
X214645Y77605D01*
X213540Y75951D01*
X213152Y74000D01*
X213540Y72049D01*
X214645Y70395D01*
X216299Y69290D01*
X218250Y68902D01*
X220201Y69290D01*
X220870Y69737D01*
X221250Y69662D01*
X363600D01*
X378862Y54399D01*
Y28424D01*
X377031Y27019D01*
X375589Y25139D01*
X374682Y22950D01*
X374372Y20600D01*
X374682Y18250D01*
X375589Y16061D01*
X377031Y14181D01*
X378911Y12739D01*
X381101Y11832D01*
X383450Y11522D01*
X385799Y11832D01*
X387989Y12739D01*
X389869Y14181D01*
X391311Y16061D01*
X392218Y18250D01*
X392528Y20600D01*
X392218Y22950D01*
X391311Y25139D01*
X389869Y27019D01*
X388038Y28424D01*
Y56300D01*
X387689Y58056D01*
X386694Y59544D01*
X368744Y77494D01*
X367256Y78489D01*
X365500Y78838D01*
X221250D01*
X220294Y78648D01*
X220201Y78710D01*
X218250Y79098D01*
D02*
G37*
G36*
X199000Y66348D02*
X197049Y65960D01*
X195395Y64855D01*
X194290Y63201D01*
X193902Y61250D01*
X194290Y59299D01*
X195395Y57645D01*
X197049Y56540D01*
X199000Y56152D01*
X200951Y56540D01*
X201133Y56662D01*
X332599D01*
X353462Y35800D01*
Y28424D01*
X351631Y27019D01*
X350189Y25139D01*
X349282Y22950D01*
X348972Y20600D01*
X349282Y18250D01*
X350189Y16061D01*
X351631Y14181D01*
X353511Y12739D01*
X355700Y11832D01*
X358050Y11522D01*
X360400Y11832D01*
X362589Y12739D01*
X364469Y14181D01*
X365911Y16061D01*
X366818Y18250D01*
X367128Y20600D01*
X366818Y22950D01*
X365911Y25139D01*
X364469Y27019D01*
X362638Y28424D01*
Y37700D01*
X362289Y39456D01*
X361294Y40944D01*
X337744Y64494D01*
X336256Y65489D01*
X334500Y65838D01*
X201133D01*
X200951Y65960D01*
X199000Y66348D01*
D02*
G37*
G36*
X332650Y29678D02*
X330300Y29368D01*
X328111Y28461D01*
X326231Y27019D01*
X324789Y25139D01*
X323882Y22950D01*
X323572Y20600D01*
X323882Y18250D01*
X324789Y16061D01*
X326231Y14181D01*
X328111Y12739D01*
X330300Y11832D01*
X332650Y11522D01*
X335000Y11832D01*
X337189Y12739D01*
X339069Y14181D01*
X340512Y16061D01*
X341418Y18250D01*
X341728Y20600D01*
X341418Y22950D01*
X340512Y25139D01*
X339069Y27019D01*
X337189Y28461D01*
X335000Y29368D01*
X332650Y29678D01*
D02*
G37*
G36*
X307250D02*
X304900Y29368D01*
X302711Y28461D01*
X300831Y27019D01*
X299389Y25139D01*
X298482Y22950D01*
X298172Y20600D01*
X298482Y18250D01*
X299389Y16061D01*
X300831Y14181D01*
X302711Y12739D01*
X304900Y11832D01*
X307250Y11522D01*
X309599Y11832D01*
X311789Y12739D01*
X313669Y14181D01*
X315112Y16061D01*
X316018Y18250D01*
X316328Y20600D01*
X316018Y22950D01*
X315112Y25139D01*
X313669Y27019D01*
X311789Y28461D01*
X309599Y29368D01*
X307250Y29678D01*
D02*
G37*
G36*
X569250Y551348D02*
X567299Y550960D01*
X565645Y549855D01*
X564540Y548201D01*
X564152Y546250D01*
X564540Y544299D01*
X565645Y542645D01*
X567299Y541540D01*
X569250Y541152D01*
X571201Y541540D01*
X572855Y542645D01*
X573390Y543446D01*
X822500D01*
X822782Y543502D01*
X835590Y530695D01*
X835402Y529750D01*
X835790Y527799D01*
X836895Y526145D01*
X838549Y525040D01*
X840500Y524652D01*
X842451Y525040D01*
X844105Y526145D01*
X845210Y527799D01*
X845598Y529750D01*
X845210Y531701D01*
X844105Y533355D01*
X842451Y534460D01*
X840500Y534848D01*
X839555Y534660D01*
X825233Y548983D01*
X824323Y549590D01*
X823250Y549804D01*
X822177Y549590D01*
X821374Y549054D01*
X573390D01*
X572855Y549855D01*
X571201Y550960D01*
X569250Y551348D01*
D02*
G37*
G36*
X785500Y525598D02*
X783549Y525210D01*
X781895Y524105D01*
X781871Y524069D01*
X504879D01*
X504855Y524105D01*
X503201Y525210D01*
X501250Y525598D01*
X499299Y525210D01*
X497645Y524105D01*
X496540Y522451D01*
X496152Y520500D01*
X496540Y518549D01*
X497645Y516895D01*
X499299Y515790D01*
X501250Y515402D01*
X503201Y515790D01*
X504855Y516895D01*
X504879Y516931D01*
X781871D01*
X781895Y516895D01*
X783549Y515790D01*
X785500Y515402D01*
X787451Y515790D01*
X789105Y516895D01*
X790210Y518549D01*
X790598Y520500D01*
X790210Y522451D01*
X789105Y524105D01*
X787451Y525210D01*
X785500Y525598D01*
D02*
G37*
G36*
X763750Y510348D02*
X761799Y509960D01*
X760145Y508855D01*
X759954Y508569D01*
X504879D01*
X504855Y508605D01*
X503201Y509710D01*
X501250Y510098D01*
X499299Y509710D01*
X497645Y508605D01*
X496540Y506951D01*
X496152Y505000D01*
X496540Y503049D01*
X497645Y501395D01*
X499299Y500290D01*
X501250Y499902D01*
X503201Y500290D01*
X504855Y501395D01*
X504879Y501431D01*
X760465D01*
X761799Y500540D01*
X763750Y500152D01*
X765701Y500540D01*
X767355Y501645D01*
X768460Y503299D01*
X768848Y505250D01*
X768460Y507201D01*
X767355Y508855D01*
X765701Y509960D01*
X763750Y510348D01*
D02*
G37*
G36*
X490800Y425728D02*
X488451Y425418D01*
X486261Y424511D01*
X484381Y423069D01*
X482939Y421189D01*
X482032Y418999D01*
X481722Y416650D01*
X482032Y414300D01*
X482939Y412111D01*
X484381Y410231D01*
X486261Y408789D01*
X488451Y407882D01*
X490800Y407572D01*
X493149Y407882D01*
X495339Y408789D01*
X497219Y410231D01*
X498661Y412111D01*
X499568Y414300D01*
X499878Y416650D01*
X499568Y418999D01*
X498661Y421189D01*
X497219Y423069D01*
X495339Y424511D01*
X493149Y425418D01*
X490800Y425728D01*
D02*
G37*
G36*
X465400D02*
X463050Y425418D01*
X460861Y424511D01*
X458981Y423069D01*
X457539Y421189D01*
X456632Y418999D01*
X456322Y416650D01*
X456632Y414300D01*
X457539Y412111D01*
X458981Y410231D01*
X460861Y408789D01*
X463050Y407882D01*
X465400Y407572D01*
X467749Y407882D01*
X469939Y408789D01*
X471819Y410231D01*
X473261Y412111D01*
X474168Y414300D01*
X474478Y416650D01*
X474168Y418999D01*
X473261Y421189D01*
X471819Y423069D01*
X469939Y424511D01*
X467749Y425418D01*
X465400Y425728D01*
D02*
G37*
G36*
X516200D02*
X513851Y425418D01*
X511661Y424511D01*
X509781Y423069D01*
X508339Y421189D01*
X507432Y418999D01*
X507122Y416650D01*
X507432Y414300D01*
X508339Y412111D01*
X509781Y410231D01*
X511412Y408980D01*
Y398633D01*
X511290Y398451D01*
X510902Y396500D01*
X511290Y394549D01*
X512395Y392895D01*
X514049Y391790D01*
X516000Y391402D01*
X517951Y391790D01*
X519605Y392895D01*
X520710Y394549D01*
X521098Y396500D01*
X520710Y398451D01*
X520588Y398633D01*
Y408726D01*
X520739Y408789D01*
X522619Y410231D01*
X524062Y412111D01*
X524968Y414300D01*
X525278Y416650D01*
X524968Y418999D01*
X524062Y421189D01*
X522619Y423069D01*
X520739Y424511D01*
X518549Y425418D01*
X516200Y425728D01*
D02*
G37*
G36*
X541600D02*
X539250Y425418D01*
X537061Y424511D01*
X535181Y423069D01*
X533739Y421189D01*
X532832Y418999D01*
X532522Y416650D01*
X532832Y414300D01*
X533739Y412111D01*
X535181Y410231D01*
X536938Y408883D01*
Y391152D01*
X536816Y390970D01*
X536428Y389019D01*
X536816Y387068D01*
X537922Y385414D01*
X539576Y384309D01*
X541526Y383921D01*
X543477Y384309D01*
X545131Y385414D01*
X546236Y387068D01*
X546624Y389019D01*
X546236Y390970D01*
X546115Y391152D01*
Y408778D01*
X546139Y408789D01*
X548019Y410231D01*
X549462Y412111D01*
X550368Y414300D01*
X550678Y416650D01*
X550368Y418999D01*
X549462Y421189D01*
X548019Y423069D01*
X546139Y424511D01*
X543950Y425418D01*
X541600Y425728D01*
D02*
G37*
G36*
X567000D02*
X564650Y425418D01*
X562461Y424511D01*
X560581Y423069D01*
X559139Y421189D01*
X558232Y418999D01*
X557922Y416650D01*
X558232Y414300D01*
X559139Y412111D01*
X560581Y410231D01*
X562412Y408826D01*
Y383633D01*
X562290Y383451D01*
X561902Y381500D01*
X562290Y379549D01*
X563395Y377895D01*
X565049Y376790D01*
X567000Y376402D01*
X568951Y376790D01*
X570605Y377895D01*
X571710Y379549D01*
X572098Y381500D01*
X571710Y383451D01*
X571588Y383633D01*
Y408826D01*
X573419Y410231D01*
X574861Y412111D01*
X575768Y414300D01*
X576078Y416650D01*
X575768Y418999D01*
X574861Y421189D01*
X573419Y423069D01*
X571539Y424511D01*
X569350Y425418D01*
X567000Y425728D01*
D02*
G37*
G36*
X592400D02*
X590051Y425418D01*
X587861Y424511D01*
X585981Y423069D01*
X584539Y421189D01*
X583632Y418999D01*
X583322Y416650D01*
X583632Y414300D01*
X584539Y412111D01*
X585981Y410231D01*
X587662Y408941D01*
Y376133D01*
X587540Y375951D01*
X587152Y374000D01*
X587540Y372049D01*
X588645Y370395D01*
X590299Y369290D01*
X592250Y368902D01*
X594201Y369290D01*
X595855Y370395D01*
X596960Y372049D01*
X597348Y374000D01*
X596960Y375951D01*
X596838Y376133D01*
Y408747D01*
X596939Y408789D01*
X598819Y410231D01*
X600261Y412111D01*
X601168Y414300D01*
X601478Y416650D01*
X601168Y418999D01*
X600261Y421189D01*
X598819Y423069D01*
X596939Y424511D01*
X594749Y425418D01*
X592400Y425728D01*
D02*
G37*
G36*
X617800D02*
X615451Y425418D01*
X613261Y424511D01*
X611381Y423069D01*
X609939Y421189D01*
X609032Y418999D01*
X608722Y416650D01*
X609032Y414300D01*
X609939Y412111D01*
X611381Y410231D01*
X612942Y409034D01*
Y368651D01*
X612820Y368469D01*
X612432Y366518D01*
X612820Y364567D01*
X613925Y362913D01*
X615579Y361808D01*
X617530Y361420D01*
X619481Y361808D01*
X621135Y362913D01*
X622240Y364567D01*
X622628Y366518D01*
X622240Y368469D01*
X622118Y368651D01*
Y408697D01*
X622339Y408789D01*
X624219Y410231D01*
X625662Y412111D01*
X626568Y414300D01*
X626878Y416650D01*
X626568Y418999D01*
X625662Y421189D01*
X624219Y423069D01*
X622339Y424511D01*
X620149Y425418D01*
X617800Y425728D01*
D02*
G37*
G36*
X820000Y104348D02*
X818049Y103960D01*
X816395Y102855D01*
X815290Y101201D01*
X814902Y99250D01*
X815290Y97299D01*
X815931Y96339D01*
Y54879D01*
X815895Y54855D01*
X814790Y53201D01*
X814402Y51250D01*
X814790Y49299D01*
X815895Y47645D01*
X817549Y46540D01*
X819500Y46152D01*
X821451Y46540D01*
X823105Y47645D01*
X824210Y49299D01*
X824598Y51250D01*
X824210Y53201D01*
X823105Y54855D01*
X823069Y54879D01*
Y95287D01*
X823605Y95645D01*
X824710Y97299D01*
X825098Y99250D01*
X824710Y101201D01*
X823605Y102855D01*
X821951Y103960D01*
X820000Y104348D01*
D02*
G37*
G36*
X900000Y86578D02*
X895226Y86265D01*
X890533Y85332D01*
X886002Y83794D01*
X881711Y81678D01*
X877732Y79019D01*
X874135Y75865D01*
X870981Y72267D01*
X868322Y68289D01*
X866206Y63998D01*
X864668Y59467D01*
X863735Y54774D01*
X863422Y50000D01*
X863735Y45226D01*
X864668Y40533D01*
X866206Y36002D01*
X868322Y31711D01*
X870981Y27733D01*
X874135Y24135D01*
X877732Y20981D01*
X881711Y18322D01*
X886002Y16206D01*
X890533Y14668D01*
X895226Y13735D01*
X900000Y13422D01*
X904774Y13735D01*
X909467Y14668D01*
X913998Y16206D01*
X918289Y18322D01*
X922268Y20981D01*
X925865Y24135D01*
X929019Y27733D01*
X931678Y31711D01*
X933794Y36002D01*
X935332Y40533D01*
X936265Y45226D01*
X936578Y50000D01*
X936265Y54774D01*
X935332Y59467D01*
X933794Y63998D01*
X931678Y68289D01*
X929019Y72267D01*
X925865Y75865D01*
X922268Y79019D01*
X918289Y81678D01*
X913998Y83794D01*
X909467Y85332D01*
X904774Y86265D01*
X900000Y86578D01*
D02*
G37*
G36*
X789850Y29678D02*
X787501Y29368D01*
X785311Y28461D01*
X783431Y27019D01*
X781989Y25139D01*
X781082Y22950D01*
X780772Y20600D01*
X781082Y18250D01*
X781989Y16061D01*
X783431Y14181D01*
X785311Y12739D01*
X787501Y11832D01*
X789850Y11522D01*
X792199Y11832D01*
X794389Y12739D01*
X796269Y14181D01*
X797711Y16061D01*
X798618Y18250D01*
X798928Y20600D01*
X798618Y22950D01*
X797711Y25139D01*
X796269Y27019D01*
X794389Y28461D01*
X792199Y29368D01*
X789850Y29678D01*
D02*
G37*
G36*
X764450D02*
X762101Y29368D01*
X759911Y28461D01*
X758031Y27019D01*
X756589Y25139D01*
X755682Y22950D01*
X755372Y20600D01*
X755682Y18250D01*
X756589Y16061D01*
X758031Y14181D01*
X759911Y12739D01*
X762101Y11832D01*
X764450Y11522D01*
X766799Y11832D01*
X768989Y12739D01*
X770869Y14181D01*
X772311Y16061D01*
X773218Y18250D01*
X773528Y20600D01*
X773218Y22950D01*
X772311Y25139D01*
X770869Y27019D01*
X768989Y28461D01*
X766799Y29368D01*
X764450Y29678D01*
D02*
G37*
G36*
X739050D02*
X736701Y29368D01*
X734511Y28461D01*
X732631Y27019D01*
X731189Y25139D01*
X730282Y22950D01*
X729972Y20600D01*
X730282Y18250D01*
X731189Y16061D01*
X732631Y14181D01*
X734511Y12739D01*
X736701Y11832D01*
X739050Y11522D01*
X741400Y11832D01*
X743589Y12739D01*
X745469Y14181D01*
X746911Y16061D01*
X747818Y18250D01*
X748128Y20600D01*
X747818Y22950D01*
X746911Y25139D01*
X745469Y27019D01*
X743589Y28461D01*
X741400Y29368D01*
X739050Y29678D01*
D02*
G37*
G36*
X713650D02*
X711301Y29368D01*
X709111Y28461D01*
X707231Y27019D01*
X705789Y25139D01*
X704882Y22950D01*
X704572Y20600D01*
X704882Y18250D01*
X705789Y16061D01*
X707231Y14181D01*
X709111Y12739D01*
X711301Y11832D01*
X713650Y11522D01*
X716000Y11832D01*
X718189Y12739D01*
X720069Y14181D01*
X721512Y16061D01*
X722418Y18250D01*
X722728Y20600D01*
X722418Y22950D01*
X721512Y25139D01*
X720069Y27019D01*
X718189Y28461D01*
X716000Y29368D01*
X713650Y29678D01*
D02*
G37*
G36*
X688250D02*
X685900Y29368D01*
X683711Y28461D01*
X681831Y27019D01*
X680389Y25139D01*
X679482Y22950D01*
X679172Y20600D01*
X679482Y18250D01*
X680389Y16061D01*
X681831Y14181D01*
X683711Y12739D01*
X685900Y11832D01*
X688250Y11522D01*
X690600Y11832D01*
X692789Y12739D01*
X694669Y14181D01*
X696112Y16061D01*
X697018Y18250D01*
X697328Y20600D01*
X697018Y22950D01*
X696112Y25139D01*
X694669Y27019D01*
X692789Y28461D01*
X690600Y29368D01*
X688250Y29678D01*
D02*
G37*
G36*
X662850D02*
X660500Y29368D01*
X658311Y28461D01*
X656431Y27019D01*
X654989Y25139D01*
X654082Y22950D01*
X653772Y20600D01*
X654082Y18250D01*
X654989Y16061D01*
X656431Y14181D01*
X658311Y12739D01*
X660500Y11832D01*
X662850Y11522D01*
X665200Y11832D01*
X667389Y12739D01*
X669269Y14181D01*
X670712Y16061D01*
X671618Y18250D01*
X671928Y20600D01*
X671618Y22950D01*
X670712Y25139D01*
X669269Y27019D01*
X667389Y28461D01*
X665200Y29368D01*
X662850Y29678D01*
D02*
G37*
G36*
X637450D02*
X635101Y29368D01*
X632911Y28461D01*
X631031Y27019D01*
X629589Y25139D01*
X628682Y22950D01*
X628372Y20600D01*
X628682Y18250D01*
X629589Y16061D01*
X631031Y14181D01*
X632911Y12739D01*
X635101Y11832D01*
X637450Y11522D01*
X639799Y11832D01*
X641989Y12739D01*
X643869Y14181D01*
X645312Y16061D01*
X646218Y18250D01*
X646528Y20600D01*
X646218Y22950D01*
X645312Y25139D01*
X643869Y27019D01*
X641989Y28461D01*
X639799Y29368D01*
X637450Y29678D01*
D02*
G37*
G36*
X612050D02*
X609701Y29368D01*
X607511Y28461D01*
X605631Y27019D01*
X604189Y25139D01*
X603282Y22950D01*
X602972Y20600D01*
X603282Y18250D01*
X604189Y16061D01*
X605631Y14181D01*
X607511Y12739D01*
X609701Y11832D01*
X612050Y11522D01*
X614399Y11832D01*
X616589Y12739D01*
X618469Y14181D01*
X619911Y16061D01*
X620818Y18250D01*
X621128Y20600D01*
X620818Y22950D01*
X619911Y25139D01*
X618469Y27019D01*
X616589Y28461D01*
X614399Y29368D01*
X612050Y29678D01*
D02*
G37*
G36*
X586650D02*
X584300Y29368D01*
X582111Y28461D01*
X580231Y27019D01*
X578789Y25139D01*
X577882Y22950D01*
X577572Y20600D01*
X577882Y18250D01*
X578789Y16061D01*
X580231Y14181D01*
X582111Y12739D01*
X584300Y11832D01*
X586650Y11522D01*
X588999Y11832D01*
X591189Y12739D01*
X593069Y14181D01*
X594511Y16061D01*
X595418Y18250D01*
X595728Y20600D01*
X595418Y22950D01*
X594511Y25139D01*
X593069Y27019D01*
X591189Y28461D01*
X588999Y29368D01*
X586650Y29678D01*
D02*
G37*
G36*
X561250D02*
X558900Y29368D01*
X556711Y28461D01*
X554831Y27019D01*
X553389Y25139D01*
X552482Y22950D01*
X552172Y20600D01*
X552482Y18250D01*
X553389Y16061D01*
X554831Y14181D01*
X556711Y12739D01*
X558900Y11832D01*
X561250Y11522D01*
X563600Y11832D01*
X565789Y12739D01*
X567669Y14181D01*
X569112Y16061D01*
X570018Y18250D01*
X570328Y20600D01*
X570018Y22950D01*
X569112Y25139D01*
X567669Y27019D01*
X565789Y28461D01*
X563600Y29368D01*
X561250Y29678D01*
D02*
G37*
G36*
X535850D02*
X533501Y29368D01*
X531311Y28461D01*
X529431Y27019D01*
X527989Y25139D01*
X527082Y22950D01*
X526772Y20600D01*
X527082Y18250D01*
X527989Y16061D01*
X529431Y14181D01*
X531311Y12739D01*
X533501Y11832D01*
X535850Y11522D01*
X538200Y11832D01*
X540389Y12739D01*
X542269Y14181D01*
X543712Y16061D01*
X544618Y18250D01*
X544928Y20600D01*
X544618Y22950D01*
X543712Y25139D01*
X542269Y27019D01*
X540389Y28461D01*
X538200Y29368D01*
X535850Y29678D01*
D02*
G37*
G36*
X510450D02*
X508101Y29368D01*
X505911Y28461D01*
X504031Y27019D01*
X502589Y25139D01*
X501682Y22950D01*
X501372Y20600D01*
X501682Y18250D01*
X502589Y16061D01*
X504031Y14181D01*
X505911Y12739D01*
X508101Y11832D01*
X510450Y11522D01*
X512799Y11832D01*
X514989Y12739D01*
X516869Y14181D01*
X518312Y16061D01*
X519218Y18250D01*
X519528Y20600D01*
X519218Y22950D01*
X518312Y25139D01*
X516869Y27019D01*
X514989Y28461D01*
X512799Y29368D01*
X510450Y29678D01*
D02*
G37*
G36*
X485050D02*
X482701Y29368D01*
X480511Y28461D01*
X478631Y27019D01*
X477189Y25139D01*
X476282Y22950D01*
X475972Y20600D01*
X476282Y18250D01*
X477189Y16061D01*
X478631Y14181D01*
X480511Y12739D01*
X482701Y11832D01*
X485050Y11522D01*
X487399Y11832D01*
X489589Y12739D01*
X491469Y14181D01*
X492911Y16061D01*
X493818Y18250D01*
X494128Y20600D01*
X493818Y22950D01*
X492911Y25139D01*
X491469Y27019D01*
X489589Y28461D01*
X487399Y29368D01*
X485050Y29678D01*
D02*
G37*
G36*
X459650D02*
X457300Y29368D01*
X455111Y28461D01*
X453231Y27019D01*
X451789Y25139D01*
X450882Y22950D01*
X450572Y20600D01*
X450882Y18250D01*
X451789Y16061D01*
X453231Y14181D01*
X455111Y12739D01*
X457300Y11832D01*
X459650Y11522D01*
X462000Y11832D01*
X464189Y12739D01*
X466069Y14181D01*
X467511Y16061D01*
X468418Y18250D01*
X468728Y20600D01*
X468418Y22950D01*
X467511Y25139D01*
X466069Y27019D01*
X464189Y28461D01*
X462000Y29368D01*
X459650Y29678D01*
D02*
G37*
G36*
X824000Y451000D02*
X815672D01*
Y449250D01*
X815982Y446900D01*
X816889Y444711D01*
X818331Y442831D01*
X820211Y441389D01*
X822401Y440482D01*
X824000Y440271D01*
Y451000D01*
D02*
G37*
G36*
X684750Y463328D02*
X682401Y463018D01*
X680211Y462112D01*
X678331Y460669D01*
X676889Y458789D01*
X675982Y456600D01*
X675672Y454250D01*
Y449250D01*
X675982Y446900D01*
X676889Y444711D01*
X678331Y442831D01*
X680211Y441389D01*
X682401Y440482D01*
X684750Y440172D01*
X687100Y440482D01*
X689289Y441389D01*
X691169Y442831D01*
X692611Y444711D01*
X693518Y446900D01*
X693828Y449250D01*
Y454250D01*
X693518Y456600D01*
X692611Y458789D01*
X691169Y460669D01*
X689289Y462112D01*
X687100Y463018D01*
X684750Y463328D01*
D02*
G37*
G36*
X593150Y273229D02*
Y265000D01*
X601379D01*
X601168Y266600D01*
X600261Y268789D01*
X598819Y270669D01*
X596939Y272111D01*
X594749Y273018D01*
X593150Y273229D01*
D02*
G37*
G36*
X601379Y263500D02*
X593150D01*
Y255271D01*
X594749Y255482D01*
X596939Y256389D01*
X598819Y257831D01*
X600261Y259711D01*
X601168Y261901D01*
X601379Y263500D01*
D02*
G37*
G36*
X744800Y273328D02*
X742450Y273018D01*
X740261Y272111D01*
X738381Y270669D01*
X736939Y268789D01*
X736032Y266600D01*
X735722Y264250D01*
X736032Y261901D01*
X736939Y259711D01*
X738381Y257831D01*
X740261Y256389D01*
X742450Y255482D01*
X744800Y255172D01*
X747150Y255482D01*
X749339Y256389D01*
X751219Y257831D01*
X752662Y259711D01*
X753568Y261901D01*
X753878Y264250D01*
X753568Y266600D01*
X752662Y268789D01*
X751219Y270669D01*
X749339Y272111D01*
X747150Y273018D01*
X744800Y273328D01*
D02*
G37*
G36*
X714400Y181979D02*
Y173750D01*
X722629D01*
X722418Y175350D01*
X721512Y177539D01*
X720069Y179419D01*
X718189Y180861D01*
X716000Y181768D01*
X714400Y181979D01*
D02*
G37*
G36*
X712900D02*
X711301Y181768D01*
X709111Y180861D01*
X707231Y179419D01*
X705789Y177539D01*
X704882Y175350D01*
X704671Y173750D01*
X712900D01*
Y181979D01*
D02*
G37*
G36*
X722629Y172250D02*
X714400D01*
Y164021D01*
X716000Y164232D01*
X718189Y165139D01*
X720069Y166581D01*
X721512Y168461D01*
X722418Y170651D01*
X722629Y172250D01*
D02*
G37*
G36*
X712900D02*
X704671D01*
X704882Y170651D01*
X705789Y168461D01*
X707231Y166581D01*
X709111Y165139D01*
X711301Y164232D01*
X712900Y164021D01*
Y172250D01*
D02*
G37*
G36*
X789850Y182078D02*
X787501Y181768D01*
X785311Y180861D01*
X783431Y179419D01*
X781989Y177539D01*
X781082Y175350D01*
X780772Y173000D01*
X781082Y170651D01*
X781989Y168461D01*
X783431Y166581D01*
X785311Y165139D01*
X787501Y164232D01*
X789850Y163922D01*
X792199Y164232D01*
X794389Y165139D01*
X796269Y166581D01*
X797711Y168461D01*
X798618Y170651D01*
X798928Y173000D01*
X798618Y175350D01*
X797711Y177539D01*
X796269Y179419D01*
X794389Y180861D01*
X792199Y181768D01*
X789850Y182078D01*
D02*
G37*
G36*
X739050D02*
X736701Y181768D01*
X734511Y180861D01*
X732631Y179419D01*
X731189Y177539D01*
X730282Y175350D01*
X729972Y173000D01*
X730282Y170651D01*
X731189Y168461D01*
X732631Y166581D01*
X734511Y165139D01*
X736701Y164232D01*
X739050Y163922D01*
X741400Y164232D01*
X743589Y165139D01*
X745469Y166581D01*
X746911Y168461D01*
X747818Y170651D01*
X748128Y173000D01*
X747818Y175350D01*
X746911Y177539D01*
X745469Y179419D01*
X743589Y180861D01*
X741400Y181768D01*
X739050Y182078D01*
D02*
G37*
G36*
X688250D02*
X685900Y181768D01*
X683711Y180861D01*
X681831Y179419D01*
X680389Y177539D01*
X679482Y175350D01*
X679172Y173000D01*
X679482Y170651D01*
X680389Y168461D01*
X681831Y166581D01*
X683711Y165139D01*
X685900Y164232D01*
X688250Y163922D01*
X690600Y164232D01*
X692789Y165139D01*
X694669Y166581D01*
X696112Y168461D01*
X697018Y170651D01*
X697328Y173000D01*
X697018Y175350D01*
X696112Y177539D01*
X694669Y179419D01*
X692789Y180861D01*
X690600Y181768D01*
X688250Y182078D01*
D02*
G37*
G36*
X662850D02*
X660500Y181768D01*
X658311Y180861D01*
X656431Y179419D01*
X654989Y177539D01*
X654082Y175350D01*
X653772Y173000D01*
X654082Y170651D01*
X654989Y168461D01*
X656431Y166581D01*
X658311Y165139D01*
X660500Y164232D01*
X662850Y163922D01*
X665200Y164232D01*
X667389Y165139D01*
X669269Y166581D01*
X670712Y168461D01*
X671618Y170651D01*
X671928Y173000D01*
X671618Y175350D01*
X670712Y177539D01*
X669269Y179419D01*
X667389Y180861D01*
X665200Y181768D01*
X662850Y182078D01*
D02*
G37*
G36*
X612050D02*
X609701Y181768D01*
X607511Y180861D01*
X605631Y179419D01*
X604189Y177539D01*
X603282Y175350D01*
X602972Y173000D01*
X603282Y170651D01*
X604189Y168461D01*
X605631Y166581D01*
X607511Y165139D01*
X609701Y164232D01*
X612050Y163922D01*
X614399Y164232D01*
X616589Y165139D01*
X618469Y166581D01*
X619911Y168461D01*
X620818Y170651D01*
X621128Y173000D01*
X620818Y175350D01*
X619911Y177539D01*
X618469Y179419D01*
X616589Y180861D01*
X614399Y181768D01*
X612050Y182078D01*
D02*
G37*
G36*
X561250D02*
X558900Y181768D01*
X556711Y180861D01*
X554831Y179419D01*
X553389Y177539D01*
X552482Y175350D01*
X552172Y173000D01*
X552482Y170651D01*
X553389Y168461D01*
X554831Y166581D01*
X556711Y165139D01*
X558900Y164232D01*
X561250Y163922D01*
X563600Y164232D01*
X565789Y165139D01*
X567669Y166581D01*
X569112Y168461D01*
X570018Y170651D01*
X570328Y173000D01*
X570018Y175350D01*
X569112Y177539D01*
X567669Y179419D01*
X565789Y180861D01*
X563600Y181768D01*
X561250Y182078D01*
D02*
G37*
G36*
X535850D02*
X533501Y181768D01*
X531311Y180861D01*
X529431Y179419D01*
X527989Y177539D01*
X527082Y175350D01*
X526772Y173000D01*
X527082Y170651D01*
X527989Y168461D01*
X529431Y166581D01*
X531311Y165139D01*
X533501Y164232D01*
X535850Y163922D01*
X538200Y164232D01*
X540389Y165139D01*
X542269Y166581D01*
X543712Y168461D01*
X544618Y170651D01*
X544928Y173000D01*
X544618Y175350D01*
X543712Y177539D01*
X542269Y179419D01*
X540389Y180861D01*
X538200Y181768D01*
X535850Y182078D01*
D02*
G37*
G36*
X510450D02*
X508101Y181768D01*
X505911Y180861D01*
X504031Y179419D01*
X502589Y177539D01*
X501682Y175350D01*
X501372Y173000D01*
X501682Y170651D01*
X502589Y168461D01*
X504031Y166581D01*
X505911Y165139D01*
X508101Y164232D01*
X510450Y163922D01*
X512799Y164232D01*
X514989Y165139D01*
X516869Y166581D01*
X518312Y168461D01*
X519218Y170651D01*
X519528Y173000D01*
X519218Y175350D01*
X518312Y177539D01*
X516869Y179419D01*
X514989Y180861D01*
X512799Y181768D01*
X510450Y182078D01*
D02*
G37*
G36*
X485050D02*
X482701Y181768D01*
X480511Y180861D01*
X478631Y179419D01*
X477189Y177539D01*
X476282Y175350D01*
X475972Y173000D01*
X476282Y170651D01*
X477189Y168461D01*
X478631Y166581D01*
X480511Y165139D01*
X482701Y164232D01*
X485050Y163922D01*
X487399Y164232D01*
X489589Y165139D01*
X491469Y166581D01*
X492911Y168461D01*
X493818Y170651D01*
X494128Y173000D01*
X493818Y175350D01*
X492911Y177539D01*
X491469Y179419D01*
X489589Y180861D01*
X487399Y181768D01*
X485050Y182078D01*
D02*
G37*
G36*
X459650D02*
X457300Y181768D01*
X455111Y180861D01*
X453231Y179419D01*
X451789Y177539D01*
X450882Y175350D01*
X450572Y173000D01*
X450882Y170651D01*
X451789Y168461D01*
X453231Y166581D01*
X455111Y165139D01*
X457300Y164232D01*
X459650Y163922D01*
X462000Y164232D01*
X464189Y165139D01*
X466069Y166581D01*
X467511Y168461D01*
X468418Y170651D01*
X468728Y173000D01*
X468418Y175350D01*
X467511Y177539D01*
X466069Y179419D01*
X464189Y180861D01*
X462000Y181768D01*
X459650Y182078D01*
D02*
G37*
G36*
X434250D02*
X431900Y181768D01*
X429711Y180861D01*
X427831Y179419D01*
X426389Y177539D01*
X425482Y175350D01*
X425172Y173000D01*
X425482Y170651D01*
X426389Y168461D01*
X427831Y166581D01*
X429711Y165139D01*
X431900Y164232D01*
X434250Y163922D01*
X436600Y164232D01*
X438789Y165139D01*
X440669Y166581D01*
X442112Y168461D01*
X443018Y170651D01*
X443328Y173000D01*
X443018Y175350D01*
X442112Y177539D01*
X440669Y179419D01*
X438789Y180861D01*
X436600Y181768D01*
X434250Y182078D01*
D02*
G37*
%LPD*%
D27*
X266750Y22750D02*
X267000Y23000D01*
Y43250D01*
X397500Y289500D02*
X426500D01*
X431017Y356017D02*
X459500Y384500D01*
X365018Y356017D02*
X431017D01*
X806100Y255100D02*
Y307542D01*
X797750Y246750D02*
X806100Y255100D01*
X904000Y322500D02*
X904250Y322750D01*
X821058Y322500D02*
X904000D01*
X806100Y307542D02*
X821058Y322500D01*
X744750Y451750D02*
X757750Y464750D01*
X829099D01*
X835250Y458599D01*
Y429750D02*
Y458599D01*
X800500Y395000D02*
X835250Y429750D01*
X800500Y334000D02*
Y395000D01*
D28*
X789721Y437250D02*
X804750Y452280D01*
X694000Y421150D02*
X695864D01*
X586250Y105500D02*
X634436D01*
X638354Y98104D02*
X638457Y98000D01*
X516000Y416350D02*
X516250Y416600D01*
X708899Y428650D02*
X732800D01*
X701324Y421075D02*
X708899Y428650D01*
X695939Y421075D02*
X701324D01*
X695864Y421150D02*
X695939Y421075D01*
X694000Y416650D02*
Y421150D01*
X732800Y428650D02*
X744800Y416650D01*
X485850Y320000D02*
X541600Y264250D01*
X336500Y320000D02*
X485850D01*
X325000Y331500D02*
X336500Y320000D01*
X364250Y264250D02*
X465400D01*
X320000Y308500D02*
X364250Y264250D01*
X751500Y95500D02*
X761250D01*
X749000Y98000D02*
X751500Y95500D01*
X638457Y98000D02*
X749000D01*
X638354Y98104D02*
X638354D01*
X638000Y97750D02*
X638354Y98104D01*
X641564Y105500D02*
X753500D01*
X754250Y104750D01*
X641314Y105750D02*
X641564Y105500D01*
X634686Y105750D02*
X641314D01*
X634436Y105500D02*
X634686Y105750D01*
X586250Y105500D02*
X586750Y105000D01*
X310500Y212000D02*
X555500D01*
X228250Y129750D02*
X310500Y212000D01*
X228250Y86250D02*
Y129750D01*
X383450Y20600D02*
Y56300D01*
X365500Y74250D02*
X383450Y56300D01*
X221250Y74250D02*
X365500D01*
X358050Y20600D02*
Y37700D01*
X334500Y61250D02*
X358050Y37700D01*
X199000Y61250D02*
X334500D01*
X555500Y212000D02*
X567000Y223500D01*
Y264250D01*
X244500Y90000D02*
X342250D01*
X358050Y105800D01*
Y173000D01*
X912750Y205300D02*
X928625Y189425D01*
Y152375D02*
Y189425D01*
X707400Y276250D02*
X756800Y325650D01*
Y420221D01*
X773829Y437250D01*
X789721D01*
X631000Y269500D02*
X668600Y307100D01*
X631000Y217350D02*
Y269500D01*
X586650Y173000D02*
X631000Y217350D01*
X804750Y451750D02*
Y452280D01*
X707400Y253900D02*
Y276250D01*
X678250Y224750D02*
X707400Y253900D01*
X783600Y231750D02*
Y404650D01*
Y192150D02*
Y231750D01*
X783100Y231250D02*
X783600Y231750D01*
X769250Y231250D02*
X783100D01*
X656600Y192150D02*
Y269600D01*
X637450Y173000D02*
X656600Y192150D01*
Y269600D02*
X719400Y332400D01*
X783600Y404650D02*
X795600Y416650D01*
X764450Y173000D02*
X783600Y192150D01*
X668600Y307100D02*
Y416650D01*
X719400Y332400D02*
Y416650D01*
X642781Y359017D02*
Y416231D01*
X643200Y416650D01*
X617530Y416380D02*
X617800Y416650D01*
X617530Y366518D02*
Y416380D01*
X592250Y416500D02*
X592400Y416650D01*
X592250Y374000D02*
Y416500D01*
X567000Y381500D02*
Y416650D01*
X541526Y416576D02*
X541600Y416650D01*
X541526Y389019D02*
Y416576D01*
X516000Y396500D02*
Y416350D01*
X516200Y416650D02*
X516250Y416600D01*
D29*
X904250Y145500D02*
Y322750D01*
X434000Y151500D02*
X615383D01*
X485000Y138500D02*
X620767D01*
X561000Y119000D02*
X628844D01*
X694000Y326000D02*
X695000Y325000D01*
X694000Y326000D02*
Y416650D01*
X352750Y381500D02*
X353000Y381250D01*
X293500Y381500D02*
X352750D01*
X647750Y447000D02*
X654700Y440050D01*
Y347450D02*
Y440050D01*
X643000Y335750D02*
X654700Y347450D01*
X397000Y335750D02*
X643000D01*
X890000Y255493D02*
Y303000D01*
X869000Y234493D02*
X890000Y255493D01*
X869000Y157403D02*
Y234493D01*
X862500Y238600D02*
X863700Y239800D01*
X856000Y162788D02*
Y251500D01*
X849500Y165480D02*
Y264250D01*
X843000Y168173D02*
Y276750D01*
X836500Y170865D02*
Y289200D01*
X830000Y173558D02*
Y301500D01*
X823500Y176250D02*
Y315750D01*
X377500Y303500D02*
X427000D01*
X423850Y158000D02*
X612690D01*
X460250Y145000D02*
X618075D01*
X511000Y132000D02*
X623460D01*
X536250Y125500D02*
X626152D01*
X644463Y112500D02*
X824097D01*
X566107D02*
X631537D01*
X663310Y158000D02*
X805250D01*
X663060Y158250D02*
X663310Y158000D01*
X612940Y158250D02*
X663060D01*
X612690Y158000D02*
X612940Y158250D01*
X660617Y151500D02*
X807942D01*
X660367Y151750D02*
X660617Y151500D01*
X615633Y151750D02*
X660367D01*
X615383Y151500D02*
X615633Y151750D01*
X657925Y145000D02*
X810635D01*
X657675Y145250D02*
X657925Y145000D01*
X618325Y145250D02*
X657675D01*
X618075Y145000D02*
X618325Y145250D01*
X655233Y138500D02*
X813327D01*
X654983Y138750D02*
X655233Y138500D01*
X621017Y138750D02*
X654983D01*
X620767Y138500D02*
X621017Y138750D01*
X652540Y132000D02*
X816020D01*
X652290Y132250D02*
X652540Y132000D01*
X623710Y132250D02*
X652290D01*
X623460Y132000D02*
X623710Y132250D01*
X649848Y125500D02*
X818712D01*
X649598Y125750D02*
X649848Y125500D01*
X626402Y125750D02*
X649598D01*
X626152Y125500D02*
X626402Y125750D01*
X647156Y119000D02*
X821404D01*
X646906Y119250D02*
X647156Y119000D01*
X629094Y119250D02*
X646906D01*
X628844Y119000D02*
X629094Y119250D01*
X644213Y112750D02*
X644463Y112500D01*
X631787Y112750D02*
X644213D01*
X631537Y112500D02*
X631787Y112750D01*
X882000Y446000D02*
X882500Y445500D01*
Y398250D02*
Y445500D01*
X445950Y110500D02*
X564107D01*
X383450Y173000D02*
X445950Y110500D01*
X769250Y415700D02*
X770200Y416650D01*
X769250Y344000D02*
Y415700D01*
X882500Y379750D02*
Y398250D01*
X833250Y330500D02*
X882500Y379750D01*
X812750Y330500D02*
X833250D01*
X904250Y322750D02*
Y360250D01*
X870000Y383750D02*
Y384250D01*
X856750Y397500D02*
X870000Y384250D01*
X664750Y451750D02*
Y480750D01*
X678250Y494250D01*
X869500D01*
X904250Y459500D01*
Y360250D02*
Y459500D01*
X724750Y479000D02*
X840500D01*
X704750Y459000D02*
X724750Y479000D01*
X704750Y451750D02*
Y459000D01*
X840500Y479000D02*
X856750Y462750D01*
Y397500D02*
Y462750D01*
X564107Y110500D02*
X566107Y112500D01*
X818712Y125500D02*
X856000Y162788D01*
X816020Y132000D02*
X849500Y165480D01*
X813327Y138500D02*
X843000Y168173D01*
X810635Y145000D02*
X836500Y170865D01*
X807942Y151500D02*
X830000Y173558D01*
X805250Y158000D02*
X823500Y176250D01*
X824097Y112500D02*
X869000Y157403D01*
X856000Y251500D02*
X857000Y252500D01*
X561000Y118000D02*
Y119000D01*
X821404D02*
X862500Y160096D01*
Y238600D01*
X849500Y264250D02*
X850500Y265250D01*
X843000Y276750D02*
X844150Y277900D01*
X836500Y289200D02*
X837900Y290600D01*
X830000Y301500D02*
X831800Y303300D01*
X535750Y124500D02*
Y125000D01*
X536250Y125500D01*
X510250Y131000D02*
Y131250D01*
X511000Y132000D01*
X485000Y137500D02*
Y138500D01*
X459750Y144000D02*
Y144500D01*
X460250Y145000D01*
X434000Y150500D02*
Y151500D01*
X408850Y173000D02*
X423850Y158000D01*
D30*
X103250Y341500D02*
X166500Y278250D01*
X288500D01*
X683000Y421206D02*
X689444Y427650D01*
X698631Y427575D02*
X698631D01*
X698556Y427650D02*
X698631Y427575D01*
X698631D02*
X722806Y451750D01*
X689444Y427650D02*
X698556D01*
X683000Y347750D02*
Y421206D01*
X722806Y451750D02*
X724750D01*
X678507Y343257D02*
X683000Y347750D01*
X462750Y302000D02*
Y302250D01*
X441250Y280500D02*
X462750Y302000D01*
X381500Y280500D02*
X441250D01*
X366750Y295250D02*
X381500Y280500D01*
X366750Y295250D02*
Y304750D01*
X151750Y345000D02*
X205000D01*
X146500Y339750D02*
X151750Y345000D01*
X501250Y520500D02*
X785500D01*
X185500Y388000D02*
X276500Y297000D01*
X171750Y388000D02*
X185500D01*
X763500Y505000D02*
X763750Y505250D01*
X501250Y505000D02*
X763500D01*
X819500Y98750D02*
X820000Y99250D01*
X819500Y51250D02*
Y98750D01*
D31*
X569250Y546250D02*
X822500D01*
X823250Y547000D01*
X894750Y100000D02*
X918250Y123500D01*
X866000Y100000D02*
X894750D01*
X918250Y123500D02*
Y165250D01*
X823250Y547000D02*
X840500Y529750D01*
D32*
X824750Y451750D02*
D03*
X804750D02*
D03*
X784750D02*
D03*
X764750D02*
D03*
X744750D02*
D03*
X724750D02*
D03*
X704750D02*
D03*
X684750D02*
D03*
X664750D02*
D03*
X644750D02*
D03*
D33*
X307250Y173000D02*
D03*
X332650D02*
D03*
X358050D02*
D03*
X383450D02*
D03*
X408850D02*
D03*
X434250D02*
D03*
X459650D02*
D03*
X485050D02*
D03*
X510450D02*
D03*
X535850D02*
D03*
X561250D02*
D03*
X586650D02*
D03*
X612050D02*
D03*
X637450D02*
D03*
X662850D02*
D03*
X688250D02*
D03*
X713650D02*
D03*
X739050D02*
D03*
X764450D02*
D03*
X789850D02*
D03*
Y20600D02*
D03*
X764450D02*
D03*
X739050D02*
D03*
X713650D02*
D03*
X688250D02*
D03*
X662850D02*
D03*
X637450D02*
D03*
X612050D02*
D03*
X586650D02*
D03*
X561250D02*
D03*
X535850D02*
D03*
X510450D02*
D03*
X485050D02*
D03*
X459650D02*
D03*
X434250D02*
D03*
X408850D02*
D03*
X383450D02*
D03*
X358050D02*
D03*
X332650D02*
D03*
X307250D02*
D03*
X465400Y416650D02*
D03*
X490800D02*
D03*
X516200D02*
D03*
X541600D02*
D03*
X567000D02*
D03*
X592400D02*
D03*
X617800D02*
D03*
X643200D02*
D03*
X668600D02*
D03*
X694000D02*
D03*
X719400D02*
D03*
X744800D02*
D03*
X770200D02*
D03*
X795600D02*
D03*
Y264250D02*
D03*
X770200D02*
D03*
X744800D02*
D03*
X719400D02*
D03*
X694000D02*
D03*
X668600D02*
D03*
X643200D02*
D03*
X617800D02*
D03*
X592400D02*
D03*
X567000D02*
D03*
X541600D02*
D03*
X516200D02*
D03*
X490800D02*
D03*
X465400D02*
D03*
D34*
X50000Y50000D02*
D03*
Y520000D02*
D03*
X900000D02*
D03*
Y50000D02*
D03*
D35*
X23000Y123500D02*
D03*
X93000D02*
D03*
Y186000D02*
D03*
X58250D02*
D03*
X23000D02*
D03*
D36*
X695000Y325000D02*
D03*
X710000Y335000D02*
D03*
X420000Y550000D02*
D03*
X390000D02*
D03*
X405000Y520000D02*
D03*
X390000Y490000D02*
D03*
X360000Y550000D02*
D03*
X375000Y520000D02*
D03*
X360000Y490000D02*
D03*
X330000Y550000D02*
D03*
X345000Y520000D02*
D03*
X330000Y490000D02*
D03*
X300000Y550000D02*
D03*
X315000Y520000D02*
D03*
X300000Y490000D02*
D03*
Y370000D02*
D03*
X315000Y340000D02*
D03*
X270000Y550000D02*
D03*
X285000Y520000D02*
D03*
X270000Y490000D02*
D03*
X285000Y460000D02*
D03*
X270000Y370000D02*
D03*
X240000Y550000D02*
D03*
X255000Y520000D02*
D03*
Y460000D02*
D03*
X240000Y430000D02*
D03*
X255000Y400000D02*
D03*
X240000Y370000D02*
D03*
X210000Y550000D02*
D03*
X225000Y520000D02*
D03*
Y460000D02*
D03*
Y220000D02*
D03*
X180000Y550000D02*
D03*
X195000Y520000D02*
D03*
Y460000D02*
D03*
X180000Y310000D02*
D03*
Y70000D02*
D03*
X150000Y550000D02*
D03*
X165000Y520000D02*
D03*
X150000Y370000D02*
D03*
Y250000D02*
D03*
X165000Y220000D02*
D03*
Y100000D02*
D03*
X150000Y70000D02*
D03*
X165000Y40000D02*
D03*
X120000Y550000D02*
D03*
X135000Y520000D02*
D03*
X120000Y490000D02*
D03*
Y430000D02*
D03*
X135000Y400000D02*
D03*
Y340000D02*
D03*
X120000Y310000D02*
D03*
Y250000D02*
D03*
Y190000D02*
D03*
Y130000D02*
D03*
X135000Y100000D02*
D03*
X120000Y70000D02*
D03*
X135000Y40000D02*
D03*
X90000Y550000D02*
D03*
X105000Y520000D02*
D03*
X90000Y490000D02*
D03*
X105000Y460000D02*
D03*
X90000Y430000D02*
D03*
X105000Y400000D02*
D03*
X90000Y370000D02*
D03*
Y310000D02*
D03*
X105000Y280000D02*
D03*
X90000Y250000D02*
D03*
X105000Y160000D02*
D03*
Y100000D02*
D03*
X90000Y70000D02*
D03*
X105000Y40000D02*
D03*
X75000Y460000D02*
D03*
X60000Y430000D02*
D03*
X75000Y400000D02*
D03*
X60000Y370000D02*
D03*
X75000Y340000D02*
D03*
Y280000D02*
D03*
X60000Y250000D02*
D03*
X75000Y160000D02*
D03*
X60000Y130000D02*
D03*
X75000Y100000D02*
D03*
X45000Y460000D02*
D03*
X30000Y430000D02*
D03*
X45000Y400000D02*
D03*
X30000Y370000D02*
D03*
X45000Y340000D02*
D03*
X30000Y310000D02*
D03*
Y250000D02*
D03*
X45000Y160000D02*
D03*
Y100000D02*
D03*
X930000Y490000D02*
D03*
Y130000D02*
D03*
X915000Y460000D02*
D03*
Y100000D02*
D03*
X870000Y550000D02*
D03*
X840000D02*
D03*
X855000Y520000D02*
D03*
Y280000D02*
D03*
X840000Y70000D02*
D03*
X855000Y40000D02*
D03*
X810000Y430000D02*
D03*
Y70000D02*
D03*
X795000Y280000D02*
D03*
Y100000D02*
D03*
X780000Y70000D02*
D03*
X765000Y280000D02*
D03*
X750000Y70000D02*
D03*
X720000Y310000D02*
D03*
X735000Y280000D02*
D03*
X720000Y250000D02*
D03*
X660000Y490000D02*
D03*
X630000D02*
D03*
X615000Y460000D02*
D03*
X600000Y430000D02*
D03*
X615000Y280000D02*
D03*
X600000Y250000D02*
D03*
X570000Y370000D02*
D03*
X540000D02*
D03*
X555000Y100000D02*
D03*
X510000Y550000D02*
D03*
Y490000D02*
D03*
X525000Y100000D02*
D03*
X480000Y550000D02*
D03*
Y490000D02*
D03*
X465000Y400000D02*
D03*
X450000Y130000D02*
D03*
X465000Y100000D02*
D03*
X450000Y70000D02*
D03*
X103250Y341500D02*
D03*
X288500Y278250D02*
D03*
X353000Y381250D02*
D03*
X293500Y381500D02*
D03*
X678507Y343257D02*
D03*
X462750Y302250D02*
D03*
X366750Y304750D02*
D03*
X266750Y22750D02*
D03*
X267000Y43250D02*
D03*
X426500Y289500D02*
D03*
X397500D02*
D03*
X365018Y356017D02*
D03*
X397000Y335750D02*
D03*
X439000Y480500D02*
D03*
X205000Y345000D02*
D03*
X830500Y51000D02*
D03*
X569250Y546250D02*
D03*
X785500Y520500D02*
D03*
X797750Y246750D02*
D03*
X863700Y239800D02*
D03*
X890000Y303000D02*
D03*
X276500Y297000D02*
D03*
X171750Y388000D02*
D03*
X763750Y505250D02*
D03*
X501250Y505000D02*
D03*
Y520500D02*
D03*
X320000Y308500D02*
D03*
X146500Y339750D02*
D03*
X427000Y303500D02*
D03*
X377500D02*
D03*
X325000Y331500D02*
D03*
X761250Y95500D02*
D03*
X754250Y104750D02*
D03*
X638000Y97750D02*
D03*
X586750Y105000D02*
D03*
X228250Y86250D02*
D03*
X218250Y74000D02*
D03*
X199000Y61250D02*
D03*
X244500Y90000D02*
D03*
X820000Y99250D02*
D03*
X819500Y51250D02*
D03*
X866000Y100000D02*
D03*
X928625Y152375D02*
D03*
X918250Y165250D02*
D03*
X912750Y205300D02*
D03*
X882000Y446000D02*
D03*
X840500Y529750D02*
D03*
X769250Y344000D02*
D03*
X812750Y330500D02*
D03*
X870000Y383750D02*
D03*
X800500Y334000D02*
D03*
X678250Y224750D02*
D03*
X769250Y231250D02*
D03*
X904000Y252500D02*
D03*
X904250Y145500D02*
D03*
Y360250D02*
D03*
X857000Y252500D02*
D03*
X561000Y118000D02*
D03*
X535750Y124500D02*
D03*
X510250Y131000D02*
D03*
X850500Y265250D02*
D03*
X485000Y137500D02*
D03*
X844150Y277900D02*
D03*
X459750Y144000D02*
D03*
X831800Y303300D02*
D03*
X823500Y315750D02*
D03*
X837900Y290600D02*
D03*
X434000Y150500D02*
D03*
X882500Y398250D02*
D03*
X642781Y359017D02*
D03*
X617530Y366518D02*
D03*
X592250Y374000D02*
D03*
X567000Y381500D02*
D03*
X516000Y396500D02*
D03*
X541526Y389019D02*
D03*
D37*
X92500Y128835D02*
Y191335D01*
M02*
